<svg width="391" height="550" viewBox="0 0 391 550" fill="none" xmlns="http://www.w3.org/2000/svg">
<g clip-path="url(#clip0_189_1159)">
<g opacity="0.9">
<path opacity="0.9" d="M-159.999 275.013C-159.999 123.378 -36.6436 0.02555 115.001 0.0255367C266.646 0.0255235 390.001 123.378 390.001 275.013C390.001 426.647 266.646 550 115.001 550C-36.6436 550 -159.999 426.647 -159.999 275.013ZM388.727 275.013C388.727 124.092 265.933 1.30061 115.001 1.30062C-35.93 1.30064 -158.724 124.092 -158.724 275.013C-158.724 425.933 -35.93 548.725 115.001 548.725C265.933 548.725 388.727 425.933 388.727 275.013Z" fill="url(#paint0_linear_189_1159)"/>
<path opacity="0.9" d="M-150.008 284.27C-150.008 281.924 -150.008 279.578 -149.931 277.155C-149.6 261.854 -148.147 246.425 -145.573 231.251C-144.095 222.479 -142.26 213.859 -140.119 205.673C-129.287 164.385 -109.612 127.306 -83.1822 98.4884C-74.7971 89.3587 -65.4435 80.4076 -55.4018 71.8899C-43.3466 61.6892 -30.8837 52.585 -18.3698 44.8324C-5.52458 36.8758 8.1617 29.9138 22.2812 24.1503C34.3109 19.2285 46.6464 15.3267 58.9819 12.5214C77.74 8.23712 97.3901 6.27343 117.397 6.656C132.434 6.911 148.057 8.4666 163.808 11.2718C207.033 18.9479 245.314 34.6571 277.631 57.9403C300.442 74.4146 320.398 94.7651 336.938 118.456C353.071 141.536 365.509 167.216 373.945 194.733C381.999 221.076 386.306 248.542 386.714 276.313C387.402 321.171 376.443 365.8 355.034 405.43C333.931 444.422 303.169 477.6 266.035 501.419C224.211 528.272 174.028 542.885 120.914 543.727C106.081 543.956 92.8281 543.344 80.4416 541.839C48.1756 537.887 16.2665 527.354 -11.7943 511.39C-29.0741 501.546 -45.7169 489.713 -62.6909 475.228C-79.2062 461.126 -93.0709 446.08 -105.05 429.197C-119.73 408.541 -130.944 385.997 -138.412 362.153C-143.56 345.755 -147.051 328.567 -148.759 311.098C-149.6 302.504 -150.008 293.68 -150.008 284.295L-150.008 284.27ZM385.465 280.266C385.465 278.966 385.465 277.639 385.439 276.339C385.006 248.669 380.75 221.357 372.721 195.115C364.336 167.701 351.95 142.173 335.893 119.196C319.429 95.6322 299.575 75.3837 276.866 58.9859C244.702 35.8047 206.6 20.1975 163.579 12.5469C147.879 9.7672 132.332 8.2116 117.346 7.95654C97.4666 7.57403 77.8929 9.53772 59.2367 13.7965C46.9777 16.5762 34.7187 20.478 22.74 25.3489C8.69689 31.0869 -4.91292 38.0234 -17.7072 45.9545C-30.1701 53.6816 -42.5566 62.7347 -54.5863 72.8845C-64.6025 81.3511 -73.905 90.2513 -82.2647 99.3555C-108.541 128.045 -128.14 164.921 -138.896 206.005C-141.011 214.14 -142.846 222.708 -144.324 231.455C-146.873 246.553 -148.326 261.93 -148.657 277.155C-148.912 289.166 -148.53 300.209 -147.485 310.919C-145.777 328.312 -142.311 345.398 -137.188 361.719C-129.772 385.411 -118.608 407.852 -104.005 428.407C-92.0769 445.187 -78.2887 460.157 -61.8499 474.208C-44.9522 488.642 -28.3605 500.424 -11.1571 510.243C16.7762 526.13 48.5069 536.612 80.5945 540.539C92.93 542.043 106.132 542.655 120.914 542.426C173.773 541.61 223.727 527.074 265.372 500.348C302.302 476.656 332.937 443.606 353.938 404.818C374.582 366.565 385.465 323.568 385.465 280.266Z" fill="url(#paint1_linear_189_1159)"/>
<path opacity="0.9" d="M-140.221 295.287C-140.221 290.288 -140.094 285.01 -139.839 279.323C-139.202 264.532 -137.596 249.434 -135.124 234.439C-133.62 225.437 -131.964 217.225 -130.027 209.345C-119.348 166.477 -100.972 131.105 -75.3835 104.175C-67.2788 95.6578 -58.282 87.2422 -47.8835 78.495C-35.3441 67.9627 -23.5948 59.1646 -11.9984 51.616C0.235156 43.6594 13.3352 36.5953 26.9195 30.6024C38.6434 25.4255 50.6221 21.3962 62.4733 18.6165C80.4924 14.3576 99.7347 12.598 119.691 13.3375C134.167 13.8731 149.026 15.5817 165.133 18.489C210.244 26.7006 246.945 41.1091 277.325 62.5053C299.677 78.3164 319.174 98.412 335.333 122.18C350.599 144.698 362.476 170.021 370.58 197.487C378.226 223.397 382.534 250.352 383.375 277.614C384.751 321.477 374.913 363.708 354.142 403.083C333.905 441.336 304.111 473.698 268.048 496.675C228.289 521.973 180.782 535.668 126.827 537.377C115.129 537.734 101.264 537.938 87.1699 536.663C55.0823 533.679 23.5044 523.682 -4.1485 507.718C-24.13 496.14 -41.6648 482.802 -54.7139 472.474C-71.7134 459.009 -85.6801 444.805 -97.4039 429.019C-112.441 408.796 -123.63 386.533 -130.613 362.892C-135.404 346.801 -138.437 329.816 -139.661 312.45C-140.043 306.967 -140.221 301.305 -140.221 295.21L-140.221 295.287ZM382.253 285.698C382.253 283.046 382.202 280.368 382.126 277.69C381.285 250.531 376.978 223.677 369.383 197.869C361.303 170.557 349.503 145.336 334.313 122.919C318.257 99.2535 298.861 79.2855 276.637 63.5509C246.41 42.2567 209.888 27.9247 164.955 19.7385C148.898 16.8313 134.116 15.1482 119.691 14.5872C99.8367 13.8476 80.6962 15.6073 62.8046 19.8151C51.0044 22.5693 39.1276 26.5731 27.4548 31.7245C13.9214 37.6919 0.897784 44.7304 -11.2848 52.6361C-22.8302 60.1591 -34.5285 68.9063 -47.0424 79.4131C-57.4155 88.1347 -66.3612 96.4994 -74.4405 104.991C-99.8761 131.769 -118.175 166.961 -128.778 209.6C-130.715 217.455 -132.371 225.616 -133.85 234.592C-136.322 249.511 -137.902 264.557 -138.565 279.323C-139.125 291.946 -139.049 302.453 -138.386 312.399C-137.188 329.663 -134.155 346.546 -129.389 362.561C-122.432 386.074 -111.32 408.184 -96.3844 428.279C-84.7116 443.963 -70.8214 458.091 -53.9238 471.48C-40.9256 481.782 -23.4418 495.094 -3.51132 506.621C23.9887 522.483 55.3881 532.455 87.2973 535.413C101.315 536.688 115.129 536.484 126.801 536.127C180.527 534.418 227.805 520.8 267.385 495.604C303.27 472.729 332.911 440.546 353.046 402.471C372.441 365.698 382.253 326.425 382.253 285.647L382.253 285.698Z" fill="url(#paint2_linear_189_1159)"/>
<path opacity="0.9" d="M-130.714 305.845C-130.714 297.123 -130.256 288.758 -129.771 281.465C-128.828 267.26 -127.121 252.495 -124.674 237.627C-123.119 228.038 -121.59 220.209 -119.908 213.018C-109.764 169.511 -92.1532 134.803 -67.5331 109.837C-59.8362 102.059 -51.1962 94.1787 -40.3135 85.0746C-26.984 73.9302 -15.9484 65.4381 -5.57533 58.3485C6.22496 50.2644 18.3821 43.3024 31.6096 37.0034C43.0021 31.597 54.5985 27.4402 66.0419 24.686C83.3983 20.4527 102.258 18.8715 122.087 20.0191C135.722 20.8097 149.842 22.6203 166.535 25.7316C214.399 34.6572 248.5 47.4082 277.096 67.1212C298.683 82.0908 318.282 102.441 333.778 125.98C348.204 147.911 359.469 172.929 367.268 200.318C374.48 225.769 378.813 252.24 380.087 278.991C382.126 321.299 373.13 362.255 353.327 400.814C333.931 438.327 305.157 469.847 270.113 492.009C233.132 515.368 186.925 528.527 132.791 531.154C120.099 531.766 106.999 532.404 93.9498 531.613C62.0661 529.624 30.8195 520.137 3.52344 504.173C-13.5016 494.176 -28.921 482.853 -43.8561 471.939L-46.7106 469.848C-64.4747 456.867 -78.1355 443.887 -89.7319 428.993C-105.126 409.229 -116.263 387.272 -122.813 363.785C-127.274 347.974 -129.873 331.219 -130.561 313.98C-130.663 311.251 -130.714 308.548 -130.714 305.87L-130.714 305.845ZM379.093 290.645C379.093 286.795 378.991 282.918 378.813 279.017C377.539 252.342 373.231 225.973 366.019 200.624C358.271 173.362 347.057 148.472 332.708 126.643C317.288 103.232 297.817 83.0089 276.357 68.1412C247.94 48.5558 213.991 35.8558 166.306 26.9556C149.663 23.8699 135.595 22.0593 122.01 21.2687C102.309 20.1211 83.5767 21.7023 66.3478 25.9101C54.9808 28.6643 43.4608 32.7701 32.1448 38.151C18.9682 44.4245 6.86211 51.361 -4.88719 59.3941C-15.2092 66.4581 -26.2194 74.9248 -39.5234 86.0436C-50.3807 95.1223 -58.9951 102.951 -66.6666 110.704C-91.1337 135.492 -108.643 169.996 -118.71 213.273C-120.392 220.439 -121.896 228.242 -123.451 237.806C-125.872 252.648 -127.579 267.362 -128.522 281.541C-129.16 291.054 -129.746 302.351 -129.338 313.929C-128.65 331.066 -126.076 347.719 -121.641 363.428C-115.142 386.762 -104.081 408.566 -88.7889 428.203C-77.269 442.994 -63.6592 455.898 -45.997 468.827L-43.1425 470.919C-28.2328 481.833 -12.8134 493.131 4.13513 503.102C31.2528 518.964 62.321 528.4 94.0008 530.364C106.973 531.154 120.048 530.517 132.715 529.905C186.619 527.303 232.622 514.195 269.425 490.963C304.29 468.929 332.912 437.562 352.205 400.253C370.097 365.443 379.119 328.643 379.119 290.696L379.093 290.645Z" fill="url(#paint3_linear_189_1159)"/>
<path opacity="0.9" d="M-121.489 314.184C-121.489 304.187 -120.673 294.394 -119.679 283.607C-118.456 270.167 -116.621 255.759 -114.225 240.789C-113.002 233.113 -111.6 224.876 -109.816 216.639C-100.08 171.934 -83.692 138.833 -59.7091 115.473C-50.8143 106.802 -41.5118 98.8966 -32.7699 91.6285C-21.5303 82.2693 -10.4946 73.2162 0.821432 65.081C12.061 56.9969 23.6574 49.9074 36.2987 43.4044C47.3344 37.743 58.5485 33.4842 69.6097 30.7299C86.3798 26.4966 104.858 25.1195 124.457 26.6751C140.564 27.9502 156.137 30.6789 167.937 32.9231C234.074 45.5466 258.847 59.5216 276.866 71.6605C298.046 86.0436 317.212 106.114 332.223 129.703C345.808 151.022 356.486 175.708 363.954 203.046C370.733 227.962 375.066 253.948 376.799 280.292C379.475 321.018 371.32 360.776 352.485 398.468C333.956 435.216 306.176 465.92 272.151 487.265C237.566 508.916 193.933 521.208 138.729 524.855C136.436 525.008 134.167 525.161 131.899 525.314C121.169 526.054 111.025 526.768 100.703 526.487C69.5587 525.544 37.7515 516.338 11.1945 500.552C-1.01358 493.258 -12.3041 485.404 -23.2379 477.804C-28.3097 474.285 -33.5344 470.638 -38.7082 467.17C-57.2369 454.725 -70.6173 442.917 -82.0863 428.891C-97.6331 409.867 -109.026 387.629 -115.015 364.601C-119.169 348.892 -121.336 332.341 -121.463 315.408C-121.463 315 -121.463 314.592 -121.463 314.184L-121.489 314.184ZM376.009 295.389C376.009 290.39 375.856 285.392 375.499 280.368C373.766 254.127 369.459 228.217 362.68 203.378C355.238 176.167 344.61 151.583 331.102 130.366C316.167 106.904 297.128 86.9871 276.102 72.7061C241.95 49.7288 202.216 40.7522 167.656 34.1727C155.907 31.9285 140.36 29.1998 124.329 27.9502C104.832 26.4201 86.5328 27.7717 69.89 31.9795C58.9053 34.7082 47.7931 38.9416 36.8339 44.552C24.2435 51.004 12.6982 58.068 1.53505 66.1266C-9.72999 74.2362 -20.7402 83.2894 -31.9798 92.6231C-40.6962 99.8656 -49.9733 107.746 -58.8426 116.391C-82.6471 139.572 -98.9075 172.47 -108.592 216.919C-110.376 225.106 -111.753 233.317 -112.976 240.993C-115.372 255.937 -117.207 270.295 -118.405 283.734C-119.424 294.93 -120.265 305.054 -120.189 315.408C-120.087 332.214 -117.92 348.662 -113.792 364.27C-107.828 387.145 -96.5117 409.204 -81.0923 428.101C-69.7253 442.025 -56.4213 453.73 -37.9945 466.124C-32.8208 469.592 -27.5706 473.239 -22.4988 476.784C-11.5905 484.384 -0.325412 492.238 11.8572 499.481C38.2357 515.139 69.8136 524.294 100.754 525.238C111.025 525.518 121.118 524.804 131.822 524.065C134.091 523.912 136.359 523.759 138.653 523.606C193.653 519.984 237.107 507.743 271.489 486.22C305.335 465.002 332.937 434.476 351.364 397.932C367.777 365.086 376.06 330.658 376.06 295.414L376.009 295.389Z" fill="url(#paint4_linear_189_1159)"/>
<path opacity="0.9" d="M-112.466 321.911C-112.466 320.228 -112.466 318.545 -112.39 316.861C-112.135 307.375 -111.065 298.092 -109.892 288.274L-109.586 285.749C-108.134 273.279 -106.273 260.018 -103.775 243.951L-103.699 243.467C-102.501 235.816 -101.252 227.885 -99.7231 220.286C-87.566 160.127 -66.5906 134.88 -51.8848 121.134C-43.6527 113.433 -35.1147 106.369 -26.0669 98.8965L-25.2259 98.2079C-22.6772 96.1167 -20.1541 94.0001 -17.6309 91.9089C-9.50068 85.1509 -1.09013 78.1379 7.2185 71.8389C17.8974 63.7038 28.9585 56.5123 40.9627 49.8563C51.6161 43.9653 62.4479 39.579 73.1522 36.8248C89.3872 32.5915 107.432 31.4184 126.827 33.382C141.38 34.8356 155.805 37.5388 169.313 40.1655C207.747 47.6631 244.04 54.7781 276.611 76.2507C297.358 89.9453 316.039 109.709 330.668 133.477C343.59 154.465 353.377 178.156 360.641 205.852C366.885 229.798 371.345 256.014 373.511 281.643C376.85 320.993 369.51 359.526 351.644 396.172C334.135 432.079 307.348 461.967 274.19 482.573C232.724 508.304 183.178 515.343 144.668 518.607C140.896 518.913 137.225 519.296 133.581 519.653C124.635 520.545 116.174 521.387 107.457 521.438C76.6184 521.514 45.1425 512.844 18.8404 497.007C9.51233 491.371 0.795956 485.429 -7.61463 479.691C-15.49 474.336 -22.9321 469.286 -30.7055 464.518C-44.3663 456.153 -60.2189 445.366 -74.4149 428.815C-90.2931 410.275 -101.635 388.369 -107.216 365.417C-110.657 351.468 -112.415 336.855 -112.415 321.885L-112.466 321.911ZM373.002 300.056C373.002 293.961 372.747 287.866 372.212 281.745C370.045 256.192 365.585 230.053 359.366 206.183C352.154 178.59 342.392 155.026 329.547 134.14C315.02 110.551 296.466 90.8888 275.872 77.3218C243.53 55.9767 207.339 48.9127 169.033 41.4151C155.55 38.7884 141.15 36.1107 126.674 34.6571C107.432 32.719 89.5146 33.8665 73.4581 38.0743C62.8302 40.8031 52.1004 45.1639 41.5489 51.0038C29.5702 57.6343 18.5855 64.8004 7.95763 72.8845C-0.325509 79.1835 -8.71061 86.171 -16.8408 92.929C-19.364 95.0457 -21.8872 97.1368 -24.4358 99.228L-25.2769 99.9165C-34.2991 107.363 -42.8116 114.402 -51.0438 122.103C-81.5002 150.589 -92.7143 191.953 -98.4998 220.592C-100.029 228.166 -101.227 235.714 -102.476 243.722L-102.552 244.206C-105.075 260.247 -106.91 273.508 -108.363 285.953L-108.669 288.478C-109.816 298.271 -110.912 307.502 -111.141 316.963C-111.574 333.54 -109.867 349.784 -106.044 365.188C-100.513 387.935 -89.2481 409.663 -73.4974 428.05C-59.4288 444.473 -43.6527 455.184 -30.0938 463.498C-22.2949 468.292 -14.8273 473.341 -6.95197 478.697C1.45858 484.409 10.175 490.326 19.4521 495.961C45.5504 511.671 76.7714 520.29 107.406 520.188C116.046 520.137 124.482 519.296 133.403 518.403C137.047 518.046 140.743 517.664 144.515 517.358C182.897 514.119 232.239 507.106 273.477 481.527C306.431 461.024 333.064 431.34 350.472 395.637C365.458 364.907 373.002 332.851 373.002 300.081L373.002 300.056Z" fill="url(#paint5_linear_189_1159)"/>
<path opacity="0.9" d="M-103.622 328.949C-103.622 325.43 -103.52 321.885 -103.291 318.341C-102.807 310.103 -101.609 302.121 -100.36 293.655C-100.08 291.768 -99.7994 289.855 -99.5191 287.917C-98.0663 277.818 -96.4606 267.362 -94.906 257.263L-92.5612 241.988C-91.6692 236.046 -90.7262 229.9 -89.6302 223.983C-83.4115 190.576 -73.1404 152.91 -44.0603 126.821C-37.5867 121.032 -31.0112 115.677 -24.0278 109.99C-21.9125 108.281 -19.8226 106.573 -17.7072 104.813C-12.8648 100.835 -8.0478 96.7289 -3.38377 92.7761C2.19781 88.0327 7.95779 83.1364 13.5903 78.597C23.7849 70.3854 34.2599 63.0918 45.6269 56.2828C55.7961 50.2134 66.2456 45.6995 76.6951 42.8943C92.4967 38.661 110.159 37.6919 129.197 40.0381C141.941 41.6192 154.658 44.1694 166.968 46.6176L170.689 47.3571C174.844 48.1987 178.947 48.9893 183 49.7799C216.285 56.2573 247.735 62.4033 276.331 80.8157C296.721 93.9237 314.943 113.433 329.063 137.2C341.118 157.551 350.344 180.885 357.277 208.606C363.037 231.787 367.497 257.493 370.173 282.944C374.174 320.814 367.624 358.098 350.752 393.826C334.135 428.968 308.368 458.015 276.178 477.855C241.364 499.251 200.789 507.106 150.555 512.308C145.891 512.793 141.329 513.405 136.92 513.991C129.121 515.037 121.781 516.006 114.16 516.312C83.7549 517.511 52.6103 509.375 26.4611 493.411C19.0445 488.846 12.0867 484.154 5.33273 479.615C-4.17377 473.214 -13.1705 467.17 -22.7535 461.84C-39.804 452.379 -53.8216 443.121 -66.7943 428.738C-82.9527 410.785 -94.2433 389.185 -99.4681 366.259C-102.221 354.171 -103.597 341.649 -103.622 328.949ZM370.045 304.442C370.045 297.352 369.663 290.237 368.924 283.097C366.248 257.697 361.788 232.068 356.053 208.937C349.172 181.344 339.997 158.112 327.993 137.863C313.975 114.249 295.879 94.8927 275.669 81.8868C247.277 63.6019 215.954 57.5069 182.77 51.0549C178.692 50.2644 174.589 49.4738 170.46 48.6323L166.739 47.8927C154.455 45.419 141.762 42.8943 129.044 41.3132C110.159 38.9925 92.6751 39.9361 77.0519 44.1184C66.7043 46.8982 56.3568 51.361 46.2896 57.3794C34.9736 64.1375 24.5496 71.4055 14.4059 79.5916C8.77337 84.1054 3.29372 88.7978 -2.5427 93.7451C-7.20673 97.7235 -12.0237 101.829 -16.8661 105.808C-18.9815 107.542 -21.0969 109.276 -23.2123 110.984C-30.1701 116.646 -36.7711 122.001 -43.1938 127.79C-71.9936 153.598 -82.1882 191.035 -88.3559 224.239C-89.4518 230.129 -90.3693 236.275 -91.2869 242.217L-93.6316 257.518C-95.1863 267.617 -96.792 278.048 -98.2447 288.146C-98.5251 290.084 -98.8054 291.972 -99.0857 293.884C-100.335 302.3 -101.507 310.256 -101.991 318.443C-102.96 334.687 -101.685 350.677 -98.1937 366.029C-93.02 388.751 -81.8314 410.148 -65.8258 427.948C-52.9806 442.203 -39.0649 451.384 -22.1163 460.794C-12.4824 466.124 -3.48566 472.194 6.0718 478.62C12.8003 483.159 19.7836 487.852 27.1492 492.391C53.0945 508.228 83.9843 516.312 114.135 515.113C121.704 514.807 129.019 513.838 136.767 512.793C141.176 512.206 145.764 511.594 150.428 511.11C200.483 505.907 240.93 498.104 275.516 476.835C307.476 457.148 333.115 428.279 349.605 393.367C363.19 364.601 370.045 334.789 370.045 304.518L370.045 304.442Z" fill="url(#paint6_linear_189_1159)"/>
<path opacity="0.9" d="M-94.9567 335.325C-94.9567 330.173 -94.7019 324.971 -94.2176 319.769C-93.504 312.45 -92.2296 305.386 -90.8789 297.913C-90.3946 295.312 -89.9359 292.711 -89.4771 290.033L-89.2222 288.503C-87.0814 276.033 -84.8641 263.154 -82.9526 250.301C-82.5193 247.471 -82.137 244.665 -81.7292 241.886C-81.0666 237.193 -80.3784 232.323 -79.5883 227.605C-73.65 192.361 -64.2964 156.454 -36.2867 132.457C-31.0619 127.994 -25.5569 123.608 -20.2302 119.4C-16.8914 116.773 -13.5526 114.121 -10.2139 111.392C-3.76581 106.139 2.47839 100.605 8.54418 95.2752C12.4691 91.8069 16.1647 88.5681 19.9367 85.3294C29.698 76.9903 39.5868 69.5947 50.2402 62.6837C59.9761 56.3847 70.0687 51.7434 80.1869 48.9382C95.4788 44.7049 112.759 43.9398 131.491 46.694C141.839 48.2241 152.186 50.3917 162.203 52.5084C165.465 53.197 168.727 53.8855 172.015 54.5486C179.151 56.0022 186.211 57.3283 193.067 58.5779C222.478 64.0098 250.233 69.1611 276.051 85.3294C296.109 97.9018 313.873 117.13 327.483 140.898C338.697 160.56 347.363 183.588 353.938 211.334C359.214 233.751 363.572 258.258 366.86 284.219C371.473 320.61 365.764 356.67 349.886 391.455C334.415 425.321 308.954 454.317 278.192 473.086C241.44 495.451 196.278 501.036 156.468 505.984C151.243 506.621 146.172 507.488 141.278 508.33C134.32 509.528 127.77 510.651 120.914 511.161C91.3246 513.405 59.6703 505.601 34.1072 489.764C28.0414 485.965 22.2815 482.114 16.7254 478.365C6.14846 471.25 -3.86777 464.543 -14.776 459.111C-29.5837 451.741 -45.2069 443.325 -59.1736 428.585C-75.6634 411.168 -86.9029 389.873 -91.7199 367.024C-93.8863 356.67 -94.9822 346.036 -94.9822 335.274L-94.9567 335.325ZM367.166 308.65C367.166 300.591 366.656 292.533 365.636 284.423C362.349 258.513 358.016 234.031 352.74 211.666C346.19 184.047 337.576 161.121 326.413 141.587C312.93 117.997 295.293 98.9219 275.414 86.4515C249.825 70.3852 222.147 65.2849 192.888 59.853C186.033 58.5779 178.973 57.2773 171.811 55.8237C168.523 55.1606 165.261 54.4721 161.999 53.7835C152.008 51.6669 141.66 49.4992 131.364 47.9691C112.784 45.2404 95.7082 45.9799 80.5692 50.1877C70.553 52.9674 60.6132 57.5323 50.9793 63.7803C40.3769 70.6403 30.5136 78.0103 20.8032 86.324C17.0312 89.5372 13.3356 92.8015 9.43618 96.2443C3.37039 101.6 -2.8993 107.108 -9.34739 112.387C-12.6861 115.116 -16.0504 117.768 -19.3891 120.42C-24.7158 124.628 -30.2209 128.989 -35.4201 133.452C-63.124 157.194 -72.4012 192.846 -78.2885 227.86C-79.0786 232.552 -79.7667 237.397 -80.4294 242.09C-80.8372 244.895 -81.2195 247.7 -81.6527 250.531C-83.5897 263.384 -85.7815 276.288 -87.9479 288.758L-88.2028 290.288C-88.6615 292.941 -89.1458 295.567 -89.6045 298.169C-90.9553 305.615 -92.2297 312.628 -92.9433 319.896C-94.4725 335.886 -93.6314 351.672 -90.4456 366.82C-85.7051 389.44 -74.542 410.505 -58.2306 427.769C-44.4168 442.356 -28.9211 450.721 -14.2153 458.04C-3.2306 463.498 6.81115 470.23 17.4391 477.371C22.9951 481.094 28.7296 484.945 34.7954 488.744C60.129 504.454 91.503 512.181 120.838 509.962C127.617 509.452 134.167 508.33 141.074 507.131C145.993 506.29 151.065 505.423 156.341 504.76C196.049 499.838 241.058 494.253 277.58 472.041C308.113 453.399 333.421 424.607 348.764 390.97C361.023 364.142 367.166 336.549 367.166 308.65Z" fill="url(#paint7_linear_189_1159)"/>
<path opacity="0.9" d="M-86.4443 341.063C-86.4443 334.483 -86.011 327.878 -85.119 321.222C-84.2269 314.592 -82.8507 308.216 -81.3724 301.509C-80.7098 298.449 -80.0217 295.363 -79.3845 292.227C-77.2691 281.745 -74.5676 267.872 -72.4777 253.515C-71.9424 249.919 -71.4837 246.349 -71.0249 242.804C-70.5407 239.004 -70.0309 235.102 -69.4448 231.303C-64.4749 198.405 -56.8289 161.376 -28.4114 138.144C-24.1042 134.599 -19.5675 131.156 -15.1838 127.79C-11.055 124.628 -6.79877 121.364 -2.59348 117.972C5.027 111.801 12.2142 105.17 19.172 98.7435C21.6187 96.4994 24.0145 94.2552 26.4102 92.0875C35.7892 83.5699 45.1173 76.0468 54.9806 69.1358C64.4361 62.5053 73.8662 57.8894 83.8059 55.0332C98.6136 50.7744 115.486 50.2134 133.938 53.4011C142.476 54.8802 151.039 56.8183 159.323 58.68C163.961 59.7255 168.727 60.8222 173.468 61.8167C182.694 63.7549 191.767 65.285 200.534 66.7641C227.066 71.2524 252.145 75.4858 275.847 89.9708C295.574 102.033 312.905 120.956 325.954 144.723C336.48 163.926 344.33 186.011 350.65 214.165C355.263 234.873 359.494 258.233 363.597 285.596C368.848 320.534 363.954 355.395 349.07 389.185C334.492 422.286 310.076 450.415 280.256 468.419C248.5 487.52 212.054 492.697 173.442 498.18C169.772 498.69 166.102 499.226 162.407 499.761C156.774 500.577 151.396 501.725 146.172 502.821C139.851 504.148 133.913 505.423 127.643 506.137C98.4352 509.477 67.1123 502.209 41.7531 486.245C36.6558 483.006 31.7879 479.742 27.0984 476.58C15.8078 468.98 5.15448 461.789 -6.77326 456.535C-23.2376 449.267 -37.9688 442.178 -51.5022 428.611C-68.3233 411.703 -79.5119 390.741 -83.8956 367.967C-85.5777 359.195 -86.4187 350.218 -86.4187 341.114L-86.4443 341.063ZM364.337 312.705C364.337 303.753 363.674 294.777 362.323 285.775C358.22 258.437 353.989 235.102 349.401 214.446C343.106 186.394 335.307 164.436 324.832 145.336C311.885 121.772 294.733 103.002 275.185 91.0674C251.66 76.7098 226.735 72.502 200.305 68.0392C191.512 66.5601 182.439 65.03 173.187 63.0663C168.421 62.0717 163.63 60.9752 159.017 59.9296C150.759 58.068 142.196 56.1298 133.709 54.6507C115.46 51.5139 98.792 52.0495 84.1373 56.2573C74.3249 59.088 65.0223 63.6274 55.6943 70.1814C45.882 77.0669 36.5539 84.5389 27.2258 93.0311C24.83 95.1988 22.4343 97.4174 19.9876 99.6871C13.0298 106.114 5.84253 112.77 -1.82892 118.967C-6.03421 122.358 -10.2904 125.648 -14.4448 128.81C-18.803 132.151 -23.3395 135.619 -27.6468 139.139C-55.7075 162.09 -63.3025 198.839 -68.2214 231.507C-68.7821 235.281 -69.2918 239.208 -69.7761 242.982C-70.2348 246.527 -70.6936 250.123 -71.2288 253.719C-73.3187 268.076 -76.0203 281.975 -78.1356 292.482C-78.7728 295.644 -79.461 298.73 -80.1236 301.79C-81.6018 308.497 -82.9781 314.821 -83.8701 321.401C-85.96 337.11 -85.5523 352.692 -82.6723 367.687C-78.3395 390.205 -67.2529 410.964 -50.6102 427.667C-37.2552 441.081 -22.6259 448.12 -6.26352 455.337C5.76614 460.641 16.4705 467.858 27.812 475.483C32.5015 478.646 37.344 481.91 42.4413 485.149C67.571 500.96 98.5882 508.151 127.515 504.836C133.709 504.122 139.647 502.872 145.917 501.546C151.141 500.45 156.57 499.302 162.228 498.461C165.924 497.925 169.594 497.39 173.264 496.88C211.723 491.422 248.041 486.271 279.594 467.297C309.184 449.446 333.421 421.521 347.898 388.649C358.857 363.759 364.362 338.309 364.362 312.679L364.337 312.705Z" fill="url(#paint8_linear_189_1159)"/>
<path opacity="0.9" d="M-78.0592 346.214C-78.0592 338.411 -77.3711 330.556 -76.0203 322.65C-74.9754 316.555 -73.4716 310.741 -71.866 304.595C-70.9994 301.28 -70.1074 297.837 -69.2919 294.343C-66.0041 280.215 -63.6083 267.872 -62.0282 256.677C-61.442 252.52 -60.9577 248.312 -60.4735 244.257C-60.1167 241.121 -59.7598 238.009 -59.3521 234.924C-54.6371 199.119 -48.1125 165.202 -20.587 143.78C-16.917 140.924 -13.094 138.118 -9.39844 135.39C-4.68344 131.921 0.184538 128.326 4.92502 124.526C13.4375 117.691 21.16 110.143 28.6275 102.849C30.0038 101.498 31.3801 100.146 32.7563 98.82C41.906 89.9198 50.444 82.5243 59.6191 75.5367C68.6414 68.6767 77.6891 63.9589 87.323 61.0771C101.672 56.7928 118.162 56.4358 136.283 60.0315C143.419 61.4596 150.606 63.2193 157.564 64.9279C163.197 66.305 169.033 67.7331 174.818 68.9827C185.523 71.3034 196.023 72.859 206.141 74.3637C230.481 77.9849 253.444 81.3767 275.567 94.5101C300.136 109.097 315.657 131.896 324.374 148.447C334.186 167.165 341.271 188.281 347.311 216.919C351.899 238.877 355.951 262.058 359.851 284.474L360.284 286.897C366.121 320.432 362.068 354.043 348.204 386.839C334.543 419.175 311.121 446.462 282.27 463.676C254.311 480.303 222.682 485.098 189.218 490.172C182.388 491.218 175.328 492.289 168.345 493.462C162.457 494.457 156.901 495.859 151.498 497.237C145.687 498.716 140.208 500.118 134.422 501.011C105.954 505.372 74.172 498.512 49.4246 482.649C44.9134 479.742 40.6062 476.835 36.4519 474.03C24.83 466.15 13.8453 458.703 1.20401 453.858C-14.7251 447.737 -29.7367 441.948 -43.8562 428.509C-61.0087 412.137 -72.1718 391.48 -76.1222 368.783C-77.422 361.388 -78.0592 353.865 -78.0592 346.265L-78.0592 346.214ZM361.584 316.606C361.584 306.788 360.717 296.944 359.01 287.126L358.577 284.703C354.677 262.287 350.625 239.132 346.037 217.2C340.022 188.689 332.988 167.65 323.227 149.059C314.587 132.636 299.218 110.066 274.904 95.6322C253.011 82.6518 230.15 79.26 205.963 75.6642C195.794 74.1596 185.293 72.604 174.538 70.2833C168.702 69.0337 162.865 67.6056 157.233 66.203C150.3 64.4944 143.139 62.7348 136.002 61.3322C118.085 57.7619 101.825 58.1189 87.6544 62.3267C78.1734 65.1575 69.2276 69.8243 60.3583 76.5823C51.2341 83.5188 42.7471 90.8889 33.6229 99.7635C32.2466 101.09 30.8703 102.441 29.4941 103.793C22.001 111.112 14.2531 118.686 5.68963 125.572C0.923643 129.397 -3.96976 132.993 -8.68479 136.461C-12.3803 139.164 -16.1779 141.969 -19.8479 144.825C-46.9911 165.967 -53.4392 199.604 -58.1287 235.128C-58.5365 238.214 -58.8933 241.299 -59.2501 244.436C-59.7089 248.491 -60.1931 252.699 -60.8048 256.881C-62.4105 268.127 -64.7807 280.496 -68.094 294.675C-68.9095 298.169 -69.8016 301.637 -70.6681 304.952C-72.2483 311.073 -73.752 316.861 -74.7969 322.905C-77.4475 338.36 -77.473 353.686 -74.8989 368.528C-70.9994 390.97 -59.9637 411.397 -43.0152 427.565C-29.074 440.826 -14.1644 446.564 1.63726 452.659C14.406 457.556 25.4417 465.053 37.14 472.984C41.2944 475.789 45.5761 478.697 50.0872 481.578C74.5798 497.288 106.03 504.097 134.193 499.761C139.927 498.869 145.381 497.492 151.167 496.012C156.596 494.635 162.177 493.207 168.115 492.213C175.124 491.04 182.184 489.968 189.014 488.923C222.376 483.874 253.878 479.079 281.607 462.605C310.229 445.519 333.447 418.461 347.006 386.38C356.691 363.428 361.584 340.068 361.584 316.632L361.584 316.606Z" fill="url(#paint9_linear_189_1159)"/>
<path opacity="0.9" d="M-69.7762 350.856C-69.7762 342.006 -68.8332 333.055 -66.9217 324.104C-65.7239 318.443 -64.0927 313.062 -62.3851 307.375C-61.3147 303.855 -60.2188 300.209 -59.2248 296.485C-55.6312 283.02 -53.1335 271.034 -51.6043 259.839C-50.9672 255.249 -50.5084 250.607 -50.0497 246.145C-49.7948 243.594 -49.5399 241.095 -49.2596 238.571C-45.8699 208.376 -41.6391 170.786 -12.7628 149.416C-9.60248 147.07 -6.3147 144.774 -3.15436 142.556C1.99393 138.935 7.32059 135.186 12.4434 131.105C21.644 123.761 29.6723 115.396 37.4457 107.312L39.1279 105.553C48.0227 96.2953 56 88.7722 64.2576 81.9632C72.8211 74.8737 81.512 70.0283 90.8401 67.1466C104.756 62.8368 120.812 62.6838 138.602 66.7131C144.642 68.0902 150.734 69.7223 156.621 71.2779C162.993 72.9865 169.568 74.7462 176.169 76.1998C187.969 78.801 199.438 80.2291 210.55 81.6062C233.132 84.4114 254.464 87.0636 275.286 99.0495C299.499 112.999 314.485 135.645 322.768 152.17C334.211 174.994 339.895 199.094 343.947 219.674C345.884 229.645 347.821 240.101 349.707 250.199C352.026 262.772 354.448 275.778 356.945 288.197C363.393 320.33 360.157 352.717 347.311 384.493C334.568 416.038 312.165 442.484 284.258 458.933C259.306 473.571 231.449 477.906 201.911 482.496C192.863 483.899 183.484 485.353 174.207 487.138C168.166 488.285 162.483 489.994 157.003 491.652C151.6 493.284 146.503 494.814 141.1 495.859C113.039 501.317 81.5885 495.018 56.994 479.003C53.018 476.401 49.2461 473.826 45.576 471.327C33.6738 463.191 22.4341 455.49 9.13015 451.129L7.1932 450.492C-8.14972 445.468 -22.6261 440.699 -36.2869 428.356C-53.5158 412.749 -64.9338 391.863 -68.4254 369.523C-69.3939 363.351 -69.8782 357.103 -69.8782 350.83L-69.7762 350.856ZM358.908 320.406C358.908 309.746 357.837 299.112 355.722 288.478C353.224 276.058 350.829 263.052 348.484 250.454C346.623 240.356 344.686 229.925 342.724 219.954C338.697 199.476 333.039 175.453 321.672 152.782C313.465 136.41 298.632 113.994 274.7 100.197C254.107 88.3387 232.902 85.712 210.449 82.9068C199.311 81.5297 187.791 80.1016 175.94 77.4749C169.313 76.0213 162.712 74.2361 156.341 72.5275C150.479 70.9464 144.387 69.3143 138.373 67.9626C120.812 63.9843 104.96 64.1119 91.2734 68.3707C82.0982 71.2269 73.5347 75.9958 65.1241 82.9578C56.9175 89.7668 48.9657 97.2389 40.0963 106.471L38.4142 108.23C30.6154 116.34 22.5616 124.73 13.2845 132.126C8.13617 136.231 2.78397 139.98 -2.3898 143.627C-5.55014 145.846 -8.83786 148.141 -11.9982 150.487C-40.4412 171.526 -44.4426 207.229 -47.9853 238.749C-48.2656 241.248 -48.5205 243.773 -48.7753 246.298C-49.2086 250.786 -49.6929 255.427 -50.33 260.043C-51.8847 271.29 -54.3824 283.326 -58.0015 296.842C-58.9954 300.591 -60.1168 304.238 -61.1873 307.783C-62.8949 313.444 -64.526 318.774 -65.6984 324.385C-68.9097 339.533 -69.394 354.681 -67.1002 369.37C-63.6595 391.429 -52.3944 412.035 -35.3694 427.438C-21.9125 439.602 -7.56354 444.32 7.65194 449.293L9.58895 449.93C23.0459 454.368 34.3619 462.095 46.3406 470.307C49.9852 472.806 53.7827 475.381 57.7331 477.957C82.0728 493.794 113.141 500.042 140.896 494.635C146.248 493.59 151.32 492.06 156.672 490.453C162.177 488.795 167.886 487.061 174.003 485.914C183.28 484.129 192.659 482.675 201.732 481.272C231.118 476.707 258.899 472.398 283.62 457.862C311.299 441.54 333.498 415.324 346.139 384.033C354.626 363.02 358.882 341.7 358.882 320.406L358.908 320.406Z" fill="url(#paint10_linear_189_1159)"/>
<path opacity="0.9" d="M-61.5948 355.038C-61.5948 345.245 -60.3459 335.376 -57.8228 325.558C-56.472 320.253 -54.7389 315.255 -52.8784 309.95C-51.6041 306.304 -50.2787 302.529 -49.1063 298.653C-45.2069 285.749 -42.6073 274.095 -41.1036 263.052C-40.4409 258.131 -40.0331 253.209 -39.6508 248.414C-39.4724 246.349 -39.3195 244.308 -39.1411 242.268L-38.9882 240.509C-36.1847 209.702 -32.9734 174.765 -4.91266 155.128C-2.13461 153.19 0.770844 151.252 3.54886 149.39C9.00299 145.744 14.661 141.969 20.0387 137.736C29.8 130.009 38.1851 120.65 45.5762 112.362C54.3946 102.467 61.6073 95.0967 68.9984 88.4407C77.1031 81.1471 85.4117 76.1743 94.4594 73.2416C107.942 68.9062 123.616 68.9572 141.049 73.42C146.223 74.7462 151.447 76.2763 156.494 77.7554C163.35 79.7701 170.435 81.8357 177.622 83.4678C190.187 86.324 202.421 87.5226 214.221 88.6702C235.375 90.7104 255.356 92.674 275.108 103.691C293.739 114.096 310.152 132.661 321.29 155.995C331.637 177.697 336.735 200.777 340.711 222.53L342.163 230.639C345.68 250.225 349.325 270.473 353.709 289.6C360.743 320.355 358.347 351.519 346.547 382.248C334.721 413.029 313.364 438.608 286.373 454.291C263.894 467.323 239.019 471.174 212.666 475.228C202.064 476.861 191.079 478.569 180.247 480.915C174.105 482.241 168.396 484.256 162.891 486.169C157.845 487.928 153.079 489.611 147.956 490.81C120.736 497.288 88.8779 491.422 64.7676 475.483C61.1995 473.137 57.8098 470.791 54.522 468.521C41.9572 459.825 31.0999 452.328 17.2352 448.528L13.4887 447.508C-1.26804 443.504 -15.2092 439.755 -28.5132 428.356C-46.0989 413.31 -57.4404 392.73 -60.4988 370.441C-61.187 365.366 -61.5438 360.24 -61.5438 355.114L-61.5948 355.038ZM356.334 324.078C356.334 312.628 355.034 301.203 352.434 289.829C348.051 270.703 344.406 250.429 340.889 230.818L339.436 222.708C335.486 201.057 330.414 178.08 320.117 156.505C309.082 133.426 292.872 115.065 274.471 104.762C254.948 93.8471 235.094 91.9345 214.093 89.8943C202.242 88.7467 189.983 87.5481 177.342 84.6919C170.129 83.0598 163.018 80.9686 156.137 78.954C151.091 77.4749 145.891 75.9448 140.718 74.6442C123.514 70.2323 108.069 70.1813 94.8417 74.4402C85.9724 77.2964 77.7912 82.1927 69.8394 89.3588C62.4993 95.9893 55.3121 103.334 46.5192 113.178C39.1026 121.491 30.6666 130.901 20.8287 138.705C15.4001 142.989 9.7421 146.764 4.26248 150.436C1.48444 152.298 -1.39554 154.21 -4.17355 156.148C-31.7755 175.453 -34.9358 210.059 -37.7139 240.611L-37.8668 242.37C-38.0452 244.411 -38.2236 246.451 -38.3765 248.491C-38.7588 253.285 -39.1666 258.258 -39.8547 263.205C-41.3584 274.324 -43.9835 286.055 -47.883 299.01C-49.0554 302.912 -50.3807 306.712 -51.655 310.358C-53.49 315.612 -55.2231 320.585 -56.5739 325.864C-60.3714 340.731 -61.2634 355.65 -59.2755 370.211C-56.2681 392.194 -45.054 412.468 -27.7231 427.336C-14.623 438.531 -0.834782 442.28 13.769 446.233L17.5156 447.253C31.5841 451.104 42.5179 458.678 55.1847 467.425C58.4725 469.694 61.8367 472.041 65.4048 474.387C89.2347 490.147 120.736 495.961 147.599 489.56C152.645 488.362 157.386 486.704 162.407 484.945C167.963 483.006 173.697 480.992 179.916 479.64C190.799 477.294 201.783 475.585 212.411 473.928C238.637 469.873 263.384 466.048 285.66 453.144C312.395 437.588 333.549 412.239 345.273 381.738C352.613 362.612 356.308 343.332 356.308 324.078L356.334 324.078Z" fill="url(#paint11_linear_189_1159)"/>
<path opacity="0.9" d="M-53.4646 359.067C-53.4646 348.382 -51.859 337.492 -48.7241 327.011C-47.2204 322.013 -45.3599 317.32 -43.3974 312.348C-41.9192 308.624 -40.39 304.774 -39.0392 300.795C-34.834 288.376 -32.1069 277.078 -30.6796 266.215C-29.9915 261.038 -29.6857 255.835 -29.3544 250.811C-29.2524 249.179 -29.1505 247.547 -29.0485 245.915L-28.7427 241.631C-26.7548 212.227 -24.4864 178.896 2.93711 160.764C5.43479 159.132 7.95795 157.525 10.4811 155.919C16.1646 152.323 22.052 148.625 27.5826 144.29C36.9107 136.971 44.735 127.841 51.9732 119.094C59.5172 109.964 66.0928 102.339 73.6623 94.8417C81.2828 87.3186 89.2601 82.2182 98.0019 79.2855C111.051 74.8992 126.343 75.1797 143.419 80.0761C147.905 81.3512 152.416 82.8048 156.774 84.2074C163.961 86.5026 171.429 88.8998 178.998 90.6594C192.124 93.7196 204.842 94.5867 217.152 95.4027C237.108 96.7543 255.968 98.0294 274.828 108.23C293.229 118.176 309.158 136.461 319.684 159.693C329.445 181.293 333.906 204.857 337.346 225.233C340.94 246.859 344.89 269.734 350.37 290.849C357.99 320.279 356.41 350.218 345.655 379.851C334.772 409.841 314.408 434.578 288.361 449.497C267.921 461.151 245.518 464.543 221.79 468.088C210.117 469.847 198.037 471.658 186.135 474.565C179.941 476.07 174.232 478.365 168.727 480.584C164.191 482.394 159.476 484.307 154.659 485.659C127.898 493.233 96.3454 487.954 72.3625 471.837C69.1257 469.669 66.0164 467.501 63.0345 465.41C50.4186 456.586 39.5358 448.961 25.1869 445.799C23.4538 445.417 21.7207 445.06 19.9876 444.677C5.66421 441.642 -7.84369 438.786 -20.8928 428.203C-38.8099 413.692 -50.1259 393.444 -52.751 371.206C-53.2353 367.228 -53.4646 363.147 -53.4646 359.067ZM353.836 327.623C353.836 315.408 352.281 303.243 349.147 291.155C343.667 270.014 339.691 247.088 336.097 225.437C332.682 205.137 328.248 181.676 318.537 160.203C308.113 137.2 292.388 119.119 274.242 109.327C255.611 99.2535 236.878 98.0039 217.075 96.6523C204.714 95.8108 191.945 94.9692 178.718 91.8835C171.097 90.0983 163.63 87.7267 156.392 85.406C152.033 84.0034 147.522 82.5753 143.062 81.2747C126.241 76.4548 111.204 76.1743 98.4097 80.4841C89.8462 83.3658 82.0474 88.3387 74.5543 95.7343C67.0103 103.181 60.4603 110.78 52.9417 119.885C45.678 128.683 37.8027 137.863 28.3727 145.259C22.7911 149.645 16.8782 153.369 11.1693 156.964C8.64609 158.571 6.1229 160.152 3.62522 161.784C-23.2886 179.559 -25.5059 212.559 -27.4938 241.656L-27.7997 245.966C-27.9016 247.573 -28.0036 249.205 -28.1055 250.837C-28.4114 255.886 -28.7427 261.114 -29.4308 266.317C-30.8581 277.257 -33.6106 288.656 -37.8414 301.127C-39.1922 305.131 -40.7468 309.007 -42.2251 312.756C-44.1875 317.678 -46.0226 322.344 -47.5263 327.317C-51.8335 341.675 -53.2098 356.772 -51.5277 371.002C-48.928 392.908 -37.7904 412.851 -20.1282 427.157C-7.30848 437.537 6.07199 440.367 20.217 443.376C21.9501 443.734 23.6832 444.116 25.4163 444.499C39.9946 447.712 50.9793 455.413 63.7226 464.314C66.7045 466.405 69.7884 468.572 73.0251 470.74C96.7277 486.653 127.847 491.881 154.276 484.409C159.042 483.057 163.502 481.272 168.217 479.36C173.774 477.141 179.508 474.82 185.778 473.29C197.731 470.383 209.837 468.572 221.535 466.813C245.136 463.268 267.437 459.902 287.673 448.375C313.465 433.584 333.6 409.102 344.406 379.392C350.65 362.178 353.785 344.863 353.785 327.598L353.836 327.623Z" fill="url(#paint12_linear_189_1159)"/>
<path opacity="0.9" d="M-45.4363 362.535C-45.4363 351.162 -43.4738 339.533 -39.6253 328.439C-37.9687 323.696 -35.9043 319.055 -33.8909 314.592C-32.2088 310.843 -30.4757 306.967 -28.9465 302.937C-24.4863 291.156 -21.5554 279.884 -20.2301 269.402C-19.542 264.047 -19.338 258.641 -19.1087 253.438C-19.0577 252.163 -19.0067 250.862 -18.9302 249.587C-18.8283 247.522 -18.7518 245.431 -18.6499 243.339C-17.4775 215.134 -16.1267 183.18 10.7871 166.451C13.0554 165.048 15.3492 163.671 17.6685 162.32C23.5049 158.851 29.5452 155.256 35.1523 150.895C44.6588 143.499 52.1263 134.115 58.3705 125.878C65.4048 116.595 71.3432 108.868 78.352 101.294C85.5137 93.5411 93.1087 88.3387 101.57 85.3805C114.212 80.9686 129.096 81.4277 145.815 86.7831C149.714 88.0327 153.665 89.4098 157.462 90.7359C164.879 93.3371 172.55 96.0148 180.4 97.9019C193.908 101.141 206.983 101.6 219.624 102.059C238.56 102.722 256.452 103.359 274.598 112.821C292.77 122.307 308.241 140.286 318.155 163.493C326.846 183.894 330.643 205.673 334.059 228.064C337.066 247.981 340.94 271.162 347.108 292.201C355.442 320.712 354.703 348.637 344.839 377.556C335.027 406.322 315.199 430.855 290.426 444.83C271.744 455.337 251.406 458.244 229.895 461.304C217.509 463.089 204.663 464.9 192.124 468.317C185.905 470 180.273 472.576 174.819 475.075C170.511 477.039 166.077 479.054 161.489 480.584C135.569 489.152 103.635 484.333 80.0851 468.292C77.0777 466.252 74.2231 464.212 71.4706 462.248C58.8802 453.322 48.023 445.595 33.2663 443.147C31.1254 442.79 29.01 442.458 26.8691 442.152C13.5142 440.112 -0.299565 437.996 -13.1703 428.177C-31.4186 414.228 -42.6837 394.311 -44.901 372.073C-45.2069 368.936 -45.3598 365.774 -45.3598 362.586L-45.4363 362.535ZM351.517 331.193C351.517 318.341 349.631 305.488 345.833 292.533C339.666 271.391 335.741 248.159 332.759 228.217C329.369 205.903 325.597 184.226 316.957 163.952C307.17 141.026 291.904 123.276 273.987 113.917C256.095 104.583 238.357 103.946 219.548 103.283C206.855 102.824 193.704 102.365 180.069 99.1005C172.142 97.2134 164.446 94.5101 157.003 91.909C153.206 90.5828 149.281 89.2058 145.382 87.9562C128.943 82.7028 114.314 82.2183 101.953 86.5536C93.6949 89.4353 86.2528 94.5357 79.244 102.135C72.2862 109.658 66.3733 117.36 59.339 126.617C53.0438 134.905 45.5253 144.366 35.8914 151.864C30.2079 156.276 24.142 159.897 18.2801 163.365C15.9863 164.742 13.6926 166.094 11.4243 167.497C-14.9289 183.869 -16.2542 215.466 -17.4011 243.365C-17.4775 245.482 -17.5795 247.573 -17.6814 249.638C-17.7324 250.913 -17.7833 252.189 -17.8598 253.489C-18.0892 258.743 -18.3186 264.149 -18.9812 269.555C-20.3065 280.139 -23.263 291.513 -27.7486 303.396C-29.2778 307.451 -31.0364 311.353 -32.7185 315.127C-34.8084 319.794 -36.7708 324.18 -38.402 328.873C-43.2699 342.924 -45.0794 357.792 -43.6777 371.92C-41.5113 393.775 -30.3992 413.386 -12.4312 427.132C0.184688 436.771 13.2338 438.761 27.0221 440.877C29.1629 441.209 31.3038 441.515 33.4192 441.872C48.4562 444.397 59.4409 452.175 72.1333 461.202C74.8858 463.166 77.7403 465.181 80.7223 467.221C103.941 483.057 135.442 487.826 161.005 479.36C165.542 477.855 169.747 475.942 174.207 473.902C179.712 471.403 185.396 468.802 191.716 467.068C204.358 463.625 217.228 461.789 229.64 460.004C251.049 456.943 271.26 454.062 289.738 443.682C314.23 429.86 333.855 405.583 343.565 377.122C348.866 361.617 351.491 346.393 351.491 331.193L351.517 331.193Z" fill="url(#paint13_linear_189_1159)"/>
<path opacity="0.9" d="M-37.4846 365.698C-37.4846 353.737 -35.1143 341.471 -30.5267 329.893C-28.7427 325.354 -26.5254 320.967 -24.41 316.734C-22.524 312.985 -20.587 309.109 -18.8794 305.08C-14.0879 293.731 -11.055 282.791 -9.80617 272.565C-9.14351 267.056 -9.0161 261.522 -8.91414 256.141L-8.86318 253.234C-8.81218 250.684 -8.76122 248.083 -8.73574 245.456C-8.37893 218.297 -7.94564 187.516 18.5858 172.087C20.6758 170.863 22.7911 169.69 24.932 168.517C30.8704 165.202 37.0381 161.784 42.6707 157.449C51.8203 150.41 58.9565 140.949 64.742 132.61L66.5261 130.06C71.9037 122.282 76.9756 114.912 83.0159 107.72C89.6934 99.7636 96.906 94.4337 105.113 91.4244C117.346 86.9616 131.823 87.6502 148.185 93.4391C151.6 94.6632 155.066 95.9638 158.405 97.2644C165.924 100.146 173.723 103.13 181.776 105.119C195.539 108.511 208.843 108.536 221.714 108.536C239.784 108.536 256.834 108.587 274.343 117.385C298.581 129.575 311.197 153.853 316.575 167.216C324.858 187.873 327.84 209.702 330.72 230.818C333.141 248.873 336.837 272.335 343.794 293.502C352.74 320.712 352.791 347.438 343.973 375.21C335.078 403.211 316.294 426.851 292.439 440.087C275.261 449.573 256.732 452.022 237.082 454.648C224.237 456.357 210.958 458.117 198.011 462.044C191.818 463.906 186.236 466.787 180.859 469.541C176.781 471.633 172.576 473.8 168.166 475.483C142.705 485.174 111.102 480.941 87.6799 464.696C84.8764 462.758 82.2003 460.82 79.6007 458.958C67.1123 449.956 56.306 442.178 41.1924 440.469C38.7457 440.189 36.2736 439.959 33.8014 439.73C20.7013 438.506 7.14239 437.256 -5.60087 428.075C-24.1806 414.687 -35.4201 395.076 -37.2042 372.889C-37.4081 370.518 -37.4846 368.12 -37.4846 365.749L-37.4846 365.698ZM349.223 334.432C349.223 320.916 347.006 307.477 342.546 293.884C335.562 272.616 331.867 249.077 329.42 230.971C326.54 209.957 323.584 188.204 315.377 167.675C310.076 154.465 297.613 130.493 273.757 118.507C256.528 109.837 239.605 109.811 221.688 109.786C208.741 109.786 195.386 109.76 181.445 106.318C173.315 104.328 165.49 101.319 157.921 98.4375C154.582 97.1624 151.141 95.8363 147.726 94.6377C131.67 88.9508 117.474 88.2877 105.52 92.623C97.5432 95.5302 90.4834 100.733 83.9589 108.536C77.9695 115.677 72.9232 123.021 67.5455 130.774L65.7615 133.35C59.925 141.74 52.7123 151.303 43.4097 158.469C37.7007 162.881 31.5075 166.324 25.5182 169.639C23.4028 170.812 21.2874 171.985 19.1975 173.209C-6.72232 188.281 -7.13012 218.679 -7.48693 245.507C-7.51241 248.134 -7.56334 250.735 -7.61431 253.311L-7.6653 256.218C-7.76723 261.624 -7.86922 267.184 -8.55733 272.769C-9.80617 283.097 -12.8901 294.165 -17.707 305.615C-19.4401 309.695 -21.3771 313.572 -23.263 317.346C-25.4804 321.758 -27.5703 325.915 -29.3289 330.403C-34.7575 344.149 -37.0258 358.812 -35.9044 372.787C-34.1458 394.591 -23.1101 413.871 -4.83628 427.03C7.62664 436.006 21.0071 437.256 33.9288 438.455C36.401 438.684 38.8732 438.914 41.3454 439.194C56.7902 440.954 67.6985 448.808 80.3398 457.913C82.9139 459.774 85.5901 461.687 88.3936 463.625C111.51 479.64 142.629 483.823 167.708 474.259C172.04 472.602 176.042 470.562 180.273 468.368C185.701 465.589 191.308 462.681 197.629 460.794C210.678 456.867 224.008 455.082 236.904 453.373C256.401 450.772 274.828 448.324 291.802 438.965C315.377 425.882 333.957 402.497 342.724 374.802C347.057 361.158 349.223 347.744 349.223 334.407L349.223 334.432Z" fill="url(#paint14_linear_189_1159)"/>
<path opacity="0.9" d="M-29.5586 368.605C-29.5586 356.109 -26.7806 343.332 -21.4284 331.347C-19.4914 327.011 -17.1467 322.829 -14.9038 318.8C-12.8394 315.102 -10.6731 311.251 -8.78706 307.222C-3.68977 296.307 -0.503953 285.724 0.642957 275.752C1.30559 270.116 1.28013 264.455 1.25465 258.972L1.25465 256.906C1.25465 253.999 1.17817 250.99 1.12721 247.955C0.693917 221.714 0.18421 191.953 26.4099 177.748C28.3723 176.677 30.3603 175.657 32.3737 174.612C38.3886 171.5 44.5818 168.313 50.2143 164.003C59.3895 157.015 65.9395 147.605 71.1388 139.342C72.2092 137.608 73.2797 135.9 74.3246 134.191C78.6573 127.204 82.7352 120.624 87.6541 114.121C93.8473 105.935 100.703 100.478 108.63 97.4683C120.302 93.031 134.779 93.9236 150.504 100.07C153.537 101.243 156.595 102.543 159.577 103.767C167.147 106.93 174.971 110.194 183.127 112.259C197.042 115.779 210.474 115.32 223.472 114.861C240.777 114.249 257.114 113.688 274.063 121.899C291.572 130.366 306.482 148.243 314.994 170.914C322.181 190.142 324.552 210.059 327.075 231.149L327.355 233.521C329.267 249.715 332.707 273.687 340.43 294.751C349.962 320.712 350.828 346.24 343.08 372.813C335.129 400.023 317.39 422.796 294.427 435.292C278.574 443.861 261.6 445.927 243.606 448.069C230.532 449.65 216.998 451.257 203.898 455.643C197.731 457.709 192.276 460.845 187.001 463.88C183.127 466.124 179.1 468.419 174.895 470.256C150.3 480.89 118.314 477.167 95.3001 460.998C92.6495 459.137 90.1008 457.275 87.6541 455.49C74.7834 446.08 64.6143 438.633 49.1694 437.69C46.4423 437.511 43.6643 437.435 40.9627 437.333C28.0666 436.899 14.7115 436.465 2.04473 427.871C-16.6114 415.222 -28.0804 395.433 -29.4312 373.603C-29.5332 371.92 -29.5841 370.211 -29.5841 368.528L-29.5586 368.605ZM2.52897 262.16C2.52897 266.674 2.4525 271.289 1.91728 275.905C0.744887 286.004 -2.46639 296.74 -7.61467 307.783C-9.52617 311.863 -11.667 315.714 -13.7569 319.437C-15.9998 323.441 -18.3191 327.598 -20.2305 331.882C-26.2199 345.296 -28.9469 359.756 -28.1059 373.629C-26.8061 395.076 -15.541 414.483 2.80932 426.928C15.1703 435.292 28.3214 435.726 41.0392 436.159C43.7408 436.261 46.5443 436.338 49.2714 436.516C65.0985 437.486 75.9048 445.417 88.4442 454.572C90.8909 456.357 93.4141 458.193 96.0647 460.08C118.722 476.019 150.224 479.691 174.436 469.21C178.59 467.425 182.566 465.13 186.415 462.911C191.741 459.825 197.272 456.663 203.542 454.572C216.744 450.16 230.353 448.502 243.504 446.921C261.371 444.779 278.217 442.739 293.866 434.272C316.549 421.929 334.033 399.437 341.908 372.532C349.58 346.24 348.738 320.967 339.283 295.261C331.51 274.095 328.043 250.021 326.132 233.751L325.852 231.379C323.328 210.365 320.958 190.525 313.822 171.449C305.437 149.059 290.757 131.437 273.528 123.123C256.859 115.065 240.675 115.626 223.523 116.212C210.448 116.671 196.915 117.13 182.821 113.586C174.563 111.494 166.688 108.23 159.093 105.042C156.137 103.818 153.078 102.518 150.045 101.345C134.6 95.3007 120.43 94.4081 109.063 98.7434C101.366 101.676 94.6884 106.981 88.6481 114.963C83.7547 121.415 79.7023 127.994 75.3951 134.931C74.3501 136.639 73.2797 138.348 72.1837 140.082C66.9081 148.447 60.2815 157.959 50.9535 165.074C45.2444 169.435 39.0002 172.648 32.9344 175.785C30.9465 176.805 28.9586 177.85 26.9961 178.896C1.43308 192.744 1.94279 222.096 2.37605 247.955C2.42701 251.015 2.47798 253.999 2.47798 256.932L2.47798 258.998C2.47798 260.043 2.47798 261.114 2.47798 262.185L2.52897 262.16Z" fill="url(#paint15_linear_189_1159)"/>
<path opacity="0.9" d="M-21.683 371.257C-21.683 358.277 -18.4717 345.041 -12.3294 332.775C-10.2395 328.618 -7.76735 324.64 -5.3716 320.789C-3.10332 317.142 -0.758528 313.342 1.30589 309.364C6.73454 298.883 10.0223 288.631 11.0927 278.915C11.7299 273.177 11.5515 267.413 11.3731 261.828L11.3221 260.553C11.2201 257.365 11.0672 254.076 10.8888 250.709C9.63999 225.284 8.21277 196.441 34.2345 183.384C36.0951 182.441 37.9811 181.548 39.867 180.656C45.9074 177.774 52.1516 174.79 57.7076 170.582C66.8828 163.646 73.1015 153.853 77.4852 146.101C78.8105 143.754 80.0848 141.434 81.3337 139.139C84.8508 132.687 88.1896 126.617 92.2929 120.573C98.0019 112.183 104.501 106.598 112.147 103.563C123.412 99.075 137.506 100.172 152.874 106.777C155.576 107.95 158.252 109.174 160.954 110.398C168.498 113.841 176.271 117.385 184.503 119.528C198.495 123.149 211.952 122.18 225.001 121.236C241.619 120.012 257.318 118.864 273.808 126.515C291.114 134.548 305.564 152.119 313.414 174.714C319.633 192.693 321.494 211.13 323.456 230.665L324.042 236.352C325.648 252.189 328.732 275.625 337.142 296.103C347.286 320.84 348.968 345.169 342.24 370.517C335.231 396.937 318.537 418.844 296.466 430.626C281.811 438.404 266.188 440.036 249.672 441.795C236.521 443.172 222.912 444.601 209.862 449.446C203.771 451.69 198.419 455.133 193.245 458.423C189.55 460.794 185.701 463.242 181.649 465.232C157.59 476.963 125.961 473.851 102.946 457.479C100.449 455.694 98.1039 453.934 95.8101 452.226C83.0413 442.713 72.9741 435.216 57.1725 435.063C54.216 435.037 51.2086 435.114 48.2776 435.19C35.5344 435.522 22.3323 435.879 9.71643 427.846C-9.29654 415.758 -20.7145 396.3 -21.6065 374.496C-21.6575 373.425 -21.683 372.328 -21.683 371.257ZM12.8003 269.708C12.8003 272.82 12.6984 275.956 12.3416 279.068C11.2457 288.937 7.90688 299.316 2.42726 309.95C0.337389 313.98 -2.0074 317.78 -4.30116 321.452C-6.67143 325.277 -9.14363 329.23 -11.1825 333.361C-17.7581 346.444 -20.9184 360.648 -20.3322 374.445C-19.4402 395.841 -8.22608 414.916 10.4046 426.775C22.6891 434.578 35.6873 434.247 48.2522 433.915C51.1831 433.839 54.2415 433.762 57.1979 433.788C73.4074 433.941 83.6275 441.566 96.5747 451.206C98.843 452.914 101.213 454.648 103.685 456.433C126.318 472.551 157.411 475.611 181.088 464.059C185.064 462.12 188.861 459.672 192.532 457.326C197.756 453.985 203.159 450.517 209.378 448.222C222.58 443.351 236.266 441.897 249.494 440.495C265.882 438.761 281.378 437.128 295.829 429.478C317.594 417.875 334.058 396.249 340.965 370.16C347.617 345.092 345.961 321.018 335.919 296.562C327.457 275.931 324.348 252.367 322.742 236.454L322.156 230.767C320.194 211.309 318.359 192.922 312.191 175.096C304.443 152.808 290.247 135.517 273.247 127.612C257.064 120.114 241.517 121.236 225.078 122.435C211.952 123.404 198.368 124.398 184.172 120.701C175.838 118.533 167.988 114.963 160.418 111.52C157.742 110.296 155.066 109.072 152.365 107.924C137.328 101.472 123.59 100.35 112.631 104.711C105.215 107.669 98.9194 113.076 93.3633 121.262C89.311 127.255 85.9722 133.299 82.4806 139.725C81.2062 142.046 79.9319 144.366 78.6321 146.713C74.1975 154.567 67.9023 164.487 58.5232 171.577C52.8652 175.861 46.5446 178.871 40.4533 181.778C38.5673 182.67 36.6812 183.588 34.8207 184.506C9.53806 197.181 10.9398 225.59 12.1886 250.607C12.367 253.974 12.5199 257.289 12.6219 260.477L12.6729 261.752C12.7493 264.353 12.8258 266.98 12.8258 269.632L12.8003 269.708Z" fill="url(#paint16_linear_189_1159)"/>
<path opacity="0.9" d="M-13.8586 373.731C-13.8586 360.317 -10.1885 346.699 -3.23063 334.228C-0.987836 330.224 1.6118 326.399 4.16045 322.727C6.60716 319.157 9.15581 315.433 11.3732 311.506C17.1076 301.433 20.5228 291.538 21.5168 282.102C22.1285 276.313 21.7971 270.473 21.4658 264.812L21.4658 264.225C21.2364 260.859 20.9561 257.391 20.6502 253.719C18.5858 229.007 16.2411 201.006 42.1099 189.046C43.894 188.23 45.7035 187.439 47.5131 186.649C53.5534 183.996 59.8231 181.268 65.3027 177.162C74.5288 170.276 80.3398 159.999 83.9079 152.884C85.2842 150.104 86.6095 147.35 87.9093 144.621C90.8147 138.526 93.5418 132.763 97.008 127.025C102.207 118.405 108.349 112.719 115.741 109.633C126.623 105.068 140.31 106.394 155.27 113.458C157.691 114.606 160.113 115.804 162.559 117.003C170.001 120.701 177.698 124.526 185.931 126.719C199.897 130.442 213.354 128.938 226.378 127.459C241.695 125.724 257.522 123.939 273.579 131.054C290.731 138.654 304.672 155.944 311.885 178.462C317.263 195.345 318.614 212.508 320.066 230.716C320.296 233.521 320.5 236.326 320.754 239.132C322.793 263.843 326.973 282.357 333.855 297.429C344.635 320.967 347.108 344.097 341.424 368.197C335.46 393.444 319.429 415.044 298.53 425.908C284.92 432.946 269.883 434.272 255.331 435.547C242.23 436.695 228.697 437.894 215.826 443.121C209.812 445.57 204.587 449.267 199.566 452.838C196.023 455.362 192.353 457.964 188.454 460.08C165.236 472.755 133.224 470.204 110.669 453.858C108.248 452.098 105.979 450.364 103.762 448.706C91.1971 439.194 81.2828 431.671 65.2263 432.36C62.0914 432.487 58.8546 432.768 55.7453 433.048C43.1039 434.145 30.0293 435.267 17.439 427.769C-1.90534 416.242 -13.2723 397.142 -13.7566 375.337C-13.7566 374.802 -13.7566 374.266 -13.7566 373.731L-13.8586 373.731ZM23.1225 275.089C23.1225 277.461 23.0205 279.858 22.7656 282.255C21.7717 291.87 18.3055 301.917 12.469 312.144C10.2008 316.122 7.65209 319.845 5.17989 323.441C2.65673 327.113 0.0825991 330.888 -2.13475 334.866C-9.27098 347.617 -12.8901 361.643 -12.5842 375.312C-12.1255 396.657 -0.962376 415.401 17.9996 426.698C30.2587 433.992 43.1039 432.87 55.5668 431.799C58.7017 431.518 61.964 431.238 65.0988 431.11C81.6141 430.422 91.6813 438.047 104.45 447.712C106.642 449.369 108.936 451.104 111.331 452.838C133.53 468.878 164.955 471.403 187.766 458.958C191.589 456.867 195.233 454.291 198.75 451.792C203.848 448.171 209.123 444.448 215.266 441.923C228.315 436.593 241.95 435.42 255.127 434.247C270.215 432.921 284.487 431.671 297.842 424.735C318.41 414.024 334.211 392.755 340.073 367.84C345.706 344.046 343.259 321.146 332.606 297.888C325.648 282.689 321.443 264.021 319.378 239.157C319.149 236.352 318.919 233.547 318.69 230.741C317.263 212.635 315.912 195.498 310.585 178.768C303.5 156.607 289.788 139.598 272.967 132.151C257.216 125.163 242.256 126.847 226.429 128.657C213.303 130.136 199.693 131.692 185.497 127.892C177.163 125.673 169.39 121.823 161.897 118.099C159.476 116.901 157.054 115.702 154.633 114.555C140.004 107.644 126.674 106.343 116.123 110.755C108.987 113.739 103.074 119.247 98.0019 127.637C94.5613 133.324 91.8597 139.037 88.9797 145.131C87.6799 147.886 86.3801 150.64 84.9783 153.42C81.3337 160.662 75.4209 171.118 65.9908 178.156C60.3838 182.339 54.0631 185.119 47.9463 187.796C46.1368 188.587 44.3527 189.377 42.5687 190.193C17.5154 201.771 19.8347 229.313 21.8481 253.591C22.154 257.263 22.4343 260.732 22.6382 264.123L22.6382 264.71C22.8676 268.102 23.0715 271.57 23.0715 275.064L23.1225 275.089Z" fill="url(#paint17_linear_189_1159)"/>
<path opacity="0.9" d="M-6.03428 376.026C-6.03428 362.229 -1.90547 348.28 5.89342 335.682C8.28914 331.806 11.0672 328.133 13.7178 324.589C16.3429 321.095 19.07 317.499 21.4657 313.648C27.506 303.983 31.0487 294.445 31.9407 285.29C32.5269 279.425 32.0172 273.559 31.5074 267.898C31.2016 264.404 30.7683 260.783 30.3096 256.932C27.4296 232.858 24.1418 205.597 49.9087 194.733C51.6418 193.993 53.4004 193.305 55.1589 192.616C61.1993 190.219 67.418 187.745 72.8211 183.767C79.779 178.641 85.335 170.965 90.2794 159.668C91.6302 156.582 92.8791 153.445 94.1024 150.436C96.3707 144.825 98.69 139.011 101.646 133.477C106.361 124.653 112.121 118.839 119.232 115.728C129.758 111.112 143.011 112.642 157.589 120.165C159.781 121.287 161.973 122.486 164.165 123.659C171.505 127.612 179.075 131.717 187.256 133.962C201.146 137.787 214.552 135.696 227.499 133.681C242.281 131.386 257.573 129.014 273.273 135.645C290.018 142.734 303.831 160.152 310.279 182.237C314.892 198.15 315.785 214.242 316.753 231.251C316.957 234.796 317.161 238.341 317.39 241.911C318.945 266.215 323.125 284.27 330.516 298.73C341.934 321.095 345.221 343.052 340.532 365.851C335.511 390.332 320.551 411.015 300.518 421.19C287.877 427.565 274.012 428.509 260.581 429.427C247.659 430.294 234.304 431.212 221.739 436.848C215.826 439.5 210.754 443.478 205.836 447.304C202.446 449.956 198.929 452.71 195.182 454.98C172.423 468.776 140.819 466.838 118.289 450.287C115.944 448.553 113.727 446.845 111.612 445.213C99.2507 435.7 89.4894 428.177 73.2035 429.682C69.9157 429.988 66.5005 430.473 63.2127 430.957C50.6479 432.793 37.6752 434.68 25.0594 427.667C5.35824 416.727 -5.98331 397.932 -6.0088 376.128L-6.0088 376L-6.03428 376.026ZM33.4954 279.756C33.4954 281.643 33.4189 283.53 33.2405 285.418C32.323 294.777 28.7294 304.493 22.5617 314.337C20.1404 318.213 17.3878 321.86 14.7373 325.379C12.0867 328.898 9.33413 332.545 6.96389 336.37C-0.70756 348.764 -4.78541 362.484 -4.78541 376.051L-4.78541 376.179C-4.75992 397.499 6.32672 415.885 25.6201 426.596C37.8536 433.38 50.6223 431.544 62.9579 429.733C66.2711 429.248 69.6863 428.764 73.0251 428.458C89.7952 426.902 99.735 434.553 112.325 444.244C114.466 445.876 116.658 447.584 119.003 449.318C141.125 465.589 172.168 467.476 194.494 453.96C198.19 451.716 201.656 448.987 205.045 446.36C210.015 442.484 215.138 438.455 221.204 435.751C233.998 430.013 247.455 429.095 260.479 428.228C274.394 427.285 287.52 426.392 299.932 420.144C319.633 410.147 334.339 389.797 339.283 365.698C343.896 343.179 340.659 321.503 329.369 299.418C321.901 284.78 317.671 266.572 316.116 242.09C315.886 238.52 315.683 234.975 315.479 231.43C314.536 214.471 313.644 198.456 309.056 182.696C302.735 160.968 289.177 143.882 272.789 136.92C257.42 130.417 242.995 132.661 227.728 135.033C214.628 137.073 201.095 139.164 186.95 135.288C178.641 132.993 170.995 128.861 163.604 124.883C161.412 123.71 159.246 122.537 157.054 121.389C142.833 114.045 129.937 112.54 119.793 116.977C112.937 119.987 107.381 125.597 102.819 134.166C99.8879 139.623 97.6705 145.157 95.3258 150.997C94.1024 154.032 92.8536 157.168 91.4773 160.254C86.431 171.781 80.7475 179.585 73.6112 184.864C68.0806 188.944 61.7855 191.443 55.6687 193.866C53.9101 194.554 52.1516 195.243 50.4439 195.982C25.5691 206.489 28.7804 233.241 31.6094 256.855C32.0682 260.706 32.5014 264.353 32.8327 267.847C33.1896 271.774 33.5209 275.778 33.5209 279.807L33.4954 279.756Z" fill="url(#paint18_linear_189_1159)"/>
<path opacity="0.9" d="M1.73916 378.117C1.73916 377.735 1.73916 377.352 1.73916 376.969C1.96853 363.249 6.55611 349.453 14.9921 337.11C17.5663 333.361 20.4718 329.816 23.3008 326.425C26.1043 323.033 29.0098 319.539 31.5584 315.79C37.9301 306.533 41.5746 297.327 42.3902 288.452C42.9509 282.587 42.2118 276.466 41.6001 271.545C41.1669 267.974 40.5806 264.251 39.9435 260.273C36.4008 237.958 31.9917 210.187 57.7331 200.369C59.4407 199.731 61.1483 199.119 62.8814 198.507C68.8707 196.365 75.0895 194.172 80.3652 190.321C87.1446 185.374 92.4713 177.544 96.6766 166.4C97.9254 163.085 99.0468 159.719 100.117 156.454C101.927 150.971 103.813 145.31 106.31 139.904C110.465 131.003 115.995 124.908 122.775 121.772C132.918 117.079 145.789 118.839 159.985 126.821C161.999 127.943 163.987 129.116 166 130.289C173.162 134.497 180.578 138.858 188.658 141.153C202.42 145.055 215.724 142.403 228.569 139.827C242.867 136.971 257.675 134.013 273.044 140.184C289.635 146.866 302.965 163.977 308.725 185.96C312.675 201.032 313.134 216.843 313.618 232.144C313.746 236.301 313.873 240.483 314.077 244.665C315.147 268.586 319.327 286.183 327.203 300.03C339.462 321.528 343.412 341.726 339.691 363.504C335.639 387.196 321.748 407.011 302.557 416.472C290.808 422.235 277.988 422.822 265.601 423.383C252.96 423.944 239.886 424.531 227.678 430.574C221.841 433.456 216.922 437.69 212.131 441.795C208.894 444.575 205.53 447.457 201.911 449.879C179.967 464.543 148.007 463.217 125.91 446.717C123.616 445.009 121.45 443.3 119.385 441.668C107.254 432.156 97.6706 424.658 81.1808 427.004C77.7656 427.489 74.3504 428.203 70.7313 428.942C58.2429 431.493 45.3212 434.145 32.6798 427.591C13.2336 417.543 1.73916 399.105 1.73916 378.117ZM43.8684 284.066C43.8684 285.571 43.8175 287.075 43.6645 288.58C42.8235 297.684 39.1025 307.069 32.6034 316.504C30.0037 320.304 27.0728 323.823 24.2693 327.215C21.4657 330.607 18.5603 334.126 16.0371 337.824C10.2517 346.291 3.29385 359.934 3.01348 376.969C3.01348 377.352 3.01348 377.735 3.01348 378.092C3.01348 398.595 14.253 416.599 33.266 426.418C45.4996 432.742 58.1919 430.141 70.4764 427.642C73.9426 426.928 77.5362 426.188 80.9769 425.704C98.0019 423.255 107.763 430.906 120.15 440.622C122.214 442.254 124.38 443.938 126.674 445.646C148.338 461.84 179.686 463.166 201.197 448.783C204.74 446.386 208.078 443.529 211.29 440.775C216.132 436.618 221.127 432.334 227.091 429.376C239.529 423.23 252.731 422.643 265.525 422.057C278.345 421.47 290.476 420.935 301.971 415.273C320.805 405.991 334.441 386.533 338.417 363.249C342.087 341.751 338.187 321.86 326.081 300.617C318.104 286.591 313.873 268.816 312.777 244.691C312.573 240.509 312.446 236.326 312.318 232.17C311.86 216.945 311.375 201.185 307.476 186.266C301.818 164.666 288.769 147.886 272.559 141.357C257.548 135.313 243.581 138.093 228.824 141.051C215.826 143.652 202.395 146.33 188.326 142.352C180.094 140.031 172.601 135.619 165.363 131.36C163.375 130.187 161.387 129.014 159.374 127.892C149.74 122.46 135.671 117.207 123.336 122.894C116.836 125.903 111.51 131.794 107.508 140.414C105.011 145.744 103.15 151.379 101.366 156.837C100.296 160.101 99.1742 163.493 97.8999 166.834C93.6182 178.207 88.1386 186.241 81.1298 191.315C75.7011 195.268 69.406 197.512 63.3402 199.68C61.6325 200.292 59.925 200.904 58.2428 201.542C33.4954 211.003 37.6242 237.066 41.2688 260.069C41.906 264.047 42.4922 267.796 42.9254 271.366C43.3842 275.089 43.9194 279.527 43.9194 284.04L43.8684 284.066Z" fill="url(#paint19_linear_189_1159)"/>
<path opacity="0.9" d="M9.48727 380.03C9.48727 379.29 9.48727 378.551 9.53826 377.786C10.2009 360.572 17.8214 346.954 24.1166 338.564C26.8436 334.942 29.9275 331.551 32.8839 328.261C35.8659 324.971 38.9242 321.554 41.6768 317.933C48.3543 309.083 52.1263 300.234 52.8654 291.64C53.3241 286.208 52.6105 280.776 51.744 275.217C51.1833 271.647 50.4442 267.821 49.6286 263.792C45.2959 241.962 39.8927 214.803 65.6087 206.03C67.2908 205.469 68.9729 204.933 70.6805 204.398C76.6188 202.536 82.7866 200.598 87.9349 196.9C94.6124 192.08 99.5822 184.328 103.099 173.184C104.195 169.69 105.113 166.145 106.03 162.702C107.432 157.296 108.885 151.685 111.026 146.356C114.67 137.251 119.819 131.029 126.343 127.841C135.977 123.149 148.771 125.163 162.381 133.503C164.216 134.625 166.026 135.798 167.861 136.945C174.844 141.408 182.082 146.024 190.06 148.37C203.669 152.348 216.82 149.11 229.513 145.999C243.377 142.581 257.701 139.062 272.789 144.774C289.253 151.073 302.098 167.879 307.17 189.734C310.484 204.041 310.534 218.985 310.585 233.419C310.585 238.009 310.611 242.778 310.738 247.445C311.325 271.034 315.504 288.146 323.889 301.331C336.837 321.707 341.603 340.731 338.825 361.158C335.792 383.727 322.666 403.109 304.571 411.729C293.637 416.931 281.811 417.16 270.368 417.365C258.083 417.594 245.365 417.849 233.616 424.225C227.933 427.31 223.141 431.799 218.528 436.134C215.393 439.067 212.182 442.101 208.665 444.703C187.562 460.259 155.27 459.57 133.581 443.07C131.338 441.362 129.223 439.679 127.184 438.047C114.798 428.177 105.852 421.037 89.1837 424.276C85.6411 424.964 82.0985 425.882 78.352 426.877C65.9145 430.166 53.0438 433.533 40.3515 427.463C20.9052 418.13 9.51278 400.508 9.51278 380.004L9.48727 380.03ZM54.2672 288.095C54.2672 289.319 54.2162 290.518 54.1142 291.742C53.3497 300.566 49.5012 309.644 42.6708 318.698C39.8927 322.395 36.7834 325.813 33.8015 329.128C30.845 332.392 27.8121 335.758 25.1105 339.329C18.9428 347.566 11.4498 360.954 10.7871 377.837C9.94604 398.697 21.1856 416.905 40.8612 426.341C53.1202 432.207 65.7616 428.891 77.9951 425.678C81.5887 424.735 85.3098 423.74 88.9034 423.051C106.158 419.711 115.766 427.361 127.923 437.078C129.962 438.684 132.052 440.367 134.295 442.076C155.551 458.244 187.18 458.958 207.849 443.708C211.29 441.158 214.501 438.149 217.585 435.241C222.275 430.855 227.092 426.29 232.928 423.128C244.932 416.599 257.803 416.344 270.266 416.115C281.582 415.885 293.28 415.681 303.959 410.581C321.672 402.14 334.517 383.141 337.499 360.98C340.226 340.833 335.537 322.115 322.743 302.019C314.23 288.631 309.999 271.315 309.388 247.471C309.26 242.778 309.26 238.009 309.235 233.419C309.184 219.036 309.133 204.194 305.845 190.015C300.875 168.568 288.31 152.119 272.254 145.948C257.548 140.388 243.403 143.856 229.742 147.223C216.871 150.385 203.567 153.649 189.626 149.594C181.471 147.223 174.156 142.556 167.096 138.016C165.287 136.843 163.452 135.696 161.642 134.574C148.414 126.464 136.053 124.475 126.827 128.963C120.583 131.998 115.639 137.991 112.122 146.789C110.006 152.068 108.554 157.627 107.177 162.983C106.285 166.451 105.342 170.021 104.246 173.515C100.627 184.94 95.5299 192.897 88.5975 197.895C83.2963 201.72 77.0267 203.684 70.9863 205.571C69.3042 206.107 67.5966 206.642 65.94 207.203C41.269 215.619 46.3408 241.07 50.801 263.511C51.6166 267.566 52.3557 271.366 52.9164 274.987C53.6045 279.399 54.1907 283.709 54.1907 288.07L54.2672 288.095Z" fill="url(#paint20_linear_189_1159)"/>
<path opacity="0.9" d="M17.2348 381.891C17.2348 380.82 17.2603 379.724 17.3368 378.627C18.1268 365.239 23.7593 351.519 33.2149 340.017C36.1458 336.472 39.3826 333.183 42.5175 329.995C45.6268 326.833 48.8636 323.568 51.7436 320.075C58.7269 311.634 62.6009 303.141 63.2635 294.828C63.6968 289.421 62.7793 283.989 61.8108 278.889C61.1226 275.344 60.2051 271.494 59.2366 267.439C54.0884 246.043 47.6658 219.444 73.4327 211.692C75.0893 211.181 76.7714 210.722 78.4535 210.289C84.3409 208.682 90.4322 207.05 95.453 203.48C101.952 198.864 106.667 190.958 109.471 179.942C110.388 176.346 111.102 172.648 111.79 169.052C112.809 163.671 113.88 158.112 115.689 152.782C118.824 143.474 123.616 137.124 129.885 133.911C139.137 129.116 151.523 131.36 164.751 140.184C166.459 141.306 168.141 142.479 169.823 143.678C176.602 148.37 183.586 153.241 191.435 155.587C204.841 159.617 217.814 155.791 230.328 152.119C243.785 148.141 257.7 144.035 272.534 149.339C291.751 156.25 302.226 176.677 305.59 193.483C308.342 207.127 307.985 221.28 307.629 234.975C307.501 239.973 307.399 245.15 307.399 250.25C307.45 264.889 308.877 286.259 320.55 302.657C334.39 322.14 339.767 339.456 337.958 358.838C335.842 380.667 323.813 399.131 306.558 407.036C296.389 411.703 285.455 411.601 274.904 411.499C263.027 411.397 250.743 411.27 239.529 417.977C233.998 421.292 229.385 426.01 224.925 430.6C221.917 433.686 218.783 436.899 215.393 439.653C194.774 456.357 162.89 456.306 141.201 439.551C138.984 437.843 136.92 436.159 134.906 434.527C122.749 424.684 113.982 417.543 97.1352 421.649C93.4906 422.541 89.846 423.715 85.9721 424.964C73.5601 428.968 60.7149 433.099 47.9716 427.438C28.5254 418.818 17.2093 401.961 17.2093 381.917L17.2348 381.891ZM64.6908 291.997C64.6908 292.966 64.6653 293.961 64.5633 294.93C63.8752 303.498 59.8993 312.246 52.7376 320.891C49.8066 324.436 46.5698 327.725 43.435 330.888C40.3001 334.05 37.0888 337.314 34.2088 340.808C24.9317 352.105 19.3757 365.545 18.6111 378.678C17.3368 399.564 28.5254 417.365 48.5323 426.239C60.8423 431.671 73.4327 427.616 85.6152 423.714C89.5147 422.465 93.1848 421.292 96.8548 420.374C114.313 416.115 123.769 423.791 135.722 433.482C137.71 435.088 139.774 436.771 141.992 438.48C163.222 454.903 194.417 454.954 214.603 438.608C217.941 435.904 221.025 432.717 224.033 429.656C228.544 425.015 233.208 420.221 238.891 416.829C250.437 409.943 262.9 410.071 274.955 410.173C285.379 410.275 296.16 410.377 306.074 405.838C322.895 398.111 334.644 380.03 336.734 358.659C338.518 339.609 333.217 322.548 319.556 303.345C307.68 286.642 306.227 265.016 306.176 250.199C306.176 245.099 306.278 239.922 306.405 234.898C306.737 221.28 307.093 207.203 304.392 193.713C301.079 177.238 290.858 157.245 272.151 150.512C257.726 145.361 244.014 149.39 230.736 153.318C218.018 157.066 204.892 160.943 191.104 156.786C183.076 154.363 175.991 149.441 169.135 144.698C167.453 143.525 165.77 142.352 164.088 141.23C151.269 132.661 139.341 130.468 130.523 135.033C124.559 138.093 119.997 144.213 116.964 153.19C115.205 158.418 114.135 163.952 113.115 169.282C112.427 172.878 111.713 176.601 110.796 180.248C107.916 191.545 103.023 199.706 96.2686 204.5C91.0693 208.198 84.8761 209.881 78.8613 211.513C77.1792 211.972 75.5225 212.431 73.8659 212.916C49.2459 220.311 55.2608 245.201 60.562 267.133C61.5559 271.213 62.4734 275.038 63.1615 278.634C63.9771 282.893 64.7672 287.407 64.7672 291.972L64.6908 291.997Z" fill="url(#paint21_linear_189_1159)"/>
<path opacity="0.9" d="M24.9572 383.498C24.9572 382.172 25.0082 380.82 25.1102 379.443C26.1806 366.08 32.2974 352.59 42.3136 341.471C45.4229 338.003 48.8891 334.815 52.2024 331.704C55.4392 328.694 58.8034 325.558 61.8363 322.217C69.1254 314.184 73.1268 306.023 73.713 297.99C74.1208 292.66 72.9994 287.228 71.9035 282.561C71.0879 279.068 70.0175 275.242 68.8451 271.213C64.5633 256.192 59.6954 239.157 66.1435 227.834C69.049 222.734 74.1208 219.215 81.2315 217.378C82.8882 216.945 84.5703 216.562 86.2524 216.18C92.0633 214.854 98.1037 213.477 102.946 210.059C109.343 205.596 113.676 197.742 115.817 186.725C116.53 183.027 117.015 179.227 117.473 175.555C118.136 170.174 118.824 164.589 120.302 159.259C122.928 149.773 127.337 143.295 133.352 140.006C142.272 135.135 154.225 137.583 167.045 146.891C168.625 148.039 170.18 149.212 171.76 150.41C178.31 155.358 185.064 160.458 192.761 162.83C205.937 166.91 218.12 162.702 230.991 158.239C244.091 153.7 257.624 149.033 272.202 153.93C291.266 160.356 301.104 180.528 303.959 197.257C306.176 210.314 305.437 223.754 304.723 236.785C304.417 242.115 304.112 247.624 304.035 253.03C303.78 267.515 304.876 288.529 317.186 303.957C327.687 317.116 338.264 333.667 337.066 356.491C335.995 377.199 324.807 395.178 308.546 402.318C299.065 406.475 288.998 406.042 279.288 405.634C267.895 405.149 256.095 404.639 245.441 411.678C240.089 415.197 235.655 420.17 231.347 424.964C228.442 428.228 225.409 431.595 222.121 434.527C202.344 452.098 170.154 452.71 148.847 435.93C146.681 434.221 144.617 432.538 142.654 430.906C130.726 421.062 122.112 413.947 105.138 418.946C101.391 420.042 97.6449 421.47 93.669 422.975C81.2825 427.693 68.4628 432.538 55.6431 427.336C36.4262 419.507 24.9317 402.956 24.9317 383.523L24.9572 383.498ZM75.0893 295.771C75.0893 296.536 75.0638 297.327 75.0128 298.118C74.4012 306.431 70.2978 314.847 62.8048 323.109C59.7464 326.501 56.3567 329.638 53.0944 332.673C49.7811 335.758 46.366 338.946 43.2821 342.363C33.4443 353.278 27.4549 366.488 26.41 379.596C24.7533 400.202 36.1458 418.028 56.1528 426.188C68.5138 431.212 81.0786 426.443 93.2357 421.827C97.2371 420.297 101.009 418.869 104.807 417.773C122.443 412.596 131.287 419.889 143.495 429.988C145.458 431.595 147.497 433.278 149.663 434.986C170.511 451.384 201.987 450.798 221.306 433.609C224.542 430.728 227.55 427.387 230.43 424.148C234.788 419.303 239.274 414.279 244.779 410.657C255.789 403.415 267.793 403.925 279.39 404.41C288.973 404.818 298.887 405.251 308.087 401.196C323.889 394.26 334.772 376.689 335.842 356.466C337.015 333.973 326.591 317.779 316.243 304.799C303.653 289.013 302.557 267.719 302.812 253.03C302.914 247.598 303.22 242.09 303.5 236.734C304.213 223.805 304.953 210.416 302.761 197.512C299.983 181.14 290.4 161.402 271.871 155.179C257.7 150.41 244.371 155.026 231.5 159.489C218.986 163.824 206.039 168.313 192.455 164.079C184.554 161.631 177.698 156.454 171.072 151.456C169.517 150.283 167.962 149.11 166.382 147.962C153.996 138.96 142.501 136.563 134.04 141.179C128.331 144.29 124.151 150.512 121.602 159.642C120.15 164.895 119.461 170.404 118.799 175.759C118.34 179.457 117.856 183.308 117.142 187.031C114.925 198.379 110.414 206.489 103.736 211.156C98.6644 214.701 92.5221 216.103 86.5837 217.455C84.9016 217.837 83.245 218.22 81.5884 218.653C74.7325 220.439 70.0684 223.652 67.2904 228.523C61.0971 239.361 65.8887 256.141 70.0939 270.907C71.2408 274.962 72.3367 278.787 73.1523 282.332C74.0953 286.412 75.0638 291.079 75.0638 295.822L75.0893 295.771Z" fill="url(#paint22_linear_189_1159)"/>
</g>
</g>
<defs>
<linearGradient id="paint0_linear_189_1159" x1="-159.999" y1="275.013" x2="115.001" y2="275.013" gradientUnits="userSpaceOnUse">
<stop stop-color="#424242"/>
<stop offset="1" stop-color="#1B1B1B"/>
</linearGradient>
<linearGradient id="paint1_linear_189_1159" x1="-150.008" y1="275.191" x2="118.368" y2="275.191" gradientUnits="userSpaceOnUse">
<stop stop-color="#424242"/>
<stop offset="1" stop-color="#1B1B1B"/>
</linearGradient>
<linearGradient id="paint2_linear_189_1159" x1="-140.221" y1="275.41" x2="121.64" y2="275.41" gradientUnits="userSpaceOnUse">
<stop stop-color="#424242"/>
<stop offset="1" stop-color="#1B1B1B"/>
</linearGradient>
<linearGradient id="paint3_linear_189_1159" x1="-130.714" y1="275.819" x2="124.828" y2="275.819" gradientUnits="userSpaceOnUse">
<stop stop-color="#424242"/>
<stop offset="1" stop-color="#1B1B1B"/>
</linearGradient>
<linearGradient id="paint4_linear_189_1159" x1="-121.489" y1="276.302" x2="127.903" y2="276.302" gradientUnits="userSpaceOnUse">
<stop stop-color="#424242"/>
<stop offset="1" stop-color="#1B1B1B"/>
</linearGradient>
<linearGradient id="paint5_linear_189_1159" x1="-112.466" y1="276.948" x2="130.914" y2="276.948" gradientUnits="userSpaceOnUse">
<stop stop-color="#424242"/>
<stop offset="1" stop-color="#1B1B1B"/>
</linearGradient>
<linearGradient id="paint6_linear_189_1159" x1="-103.622" y1="277.609" x2="133.845" y2="277.609" gradientUnits="userSpaceOnUse">
<stop stop-color="#424242"/>
<stop offset="1" stop-color="#1B1B1B"/>
</linearGradient>
<linearGradient id="paint7_linear_189_1159" x1="-94.9822" y1="278.307" x2="136.713" y2="278.307" gradientUnits="userSpaceOnUse">
<stop stop-color="#424242"/>
<stop offset="1" stop-color="#1B1B1B"/>
</linearGradient>
<linearGradient id="paint8_linear_189_1159" x1="-86.4443" y1="279.149" x2="139.597" y2="279.149" gradientUnits="userSpaceOnUse">
<stop stop-color="#424242"/>
<stop offset="1" stop-color="#1B1B1B"/>
</linearGradient>
<linearGradient id="paint9_linear_189_1159" x1="-78.0592" y1="279.937" x2="142.405" y2="279.937" gradientUnits="userSpaceOnUse">
<stop stop-color="#424242"/>
<stop offset="1" stop-color="#1B1B1B"/>
</linearGradient>
<linearGradient id="paint10_linear_189_1159" x1="-69.8782" y1="280.792" x2="145.145" y2="280.792" gradientUnits="userSpaceOnUse">
<stop stop-color="#424242"/>
<stop offset="1" stop-color="#1B1B1B"/>
</linearGradient>
<linearGradient id="paint11_linear_189_1159" x1="-61.5948" y1="281.717" x2="148.025" y2="281.717" gradientUnits="userSpaceOnUse">
<stop stop-color="#424242"/>
<stop offset="1" stop-color="#1B1B1B"/>
</linearGradient>
<linearGradient id="paint12_linear_189_1159" x1="-53.4647" y1="282.624" x2="150.82" y2="282.624" gradientUnits="userSpaceOnUse">
<stop stop-color="#424242"/>
<stop offset="1" stop-color="#1B1B1B"/>
</linearGradient>
<linearGradient id="paint13_linear_189_1159" x1="-45.4363" y1="283.578" x2="153.704" y2="283.578" gradientUnits="userSpaceOnUse">
<stop stop-color="#424242"/>
<stop offset="1" stop-color="#1B1B1B"/>
</linearGradient>
<linearGradient id="paint14_linear_189_1159" x1="-37.4846" y1="284.573" x2="156.53" y2="284.573" gradientUnits="userSpaceOnUse">
<stop stop-color="#424242"/>
<stop offset="1" stop-color="#1B1B1B"/>
</linearGradient>
<linearGradient id="paint15_linear_189_1159" x1="-29.5841" y1="285.478" x2="159.359" y2="285.478" gradientUnits="userSpaceOnUse">
<stop stop-color="#424242"/>
<stop offset="1" stop-color="#1B1B1B"/>
</linearGradient>
<linearGradient id="paint16_linear_189_1159" x1="-21.683" y1="286.57" x2="162.295" y2="286.57" gradientUnits="userSpaceOnUse">
<stop stop-color="#424242"/>
<stop offset="1" stop-color="#1B1B1B"/>
</linearGradient>
<linearGradient id="paint17_linear_189_1159" x1="-13.8586" y1="287.535" x2="165.265" y2="287.535" gradientUnits="userSpaceOnUse">
<stop stop-color="#424242"/>
<stop offset="1" stop-color="#1B1B1B"/>
</linearGradient>
<linearGradient id="paint18_linear_189_1159" x1="-6.03429" y1="288.635" x2="168.281" y2="288.635" gradientUnits="userSpaceOnUse">
<stop stop-color="#424242"/>
<stop offset="1" stop-color="#1B1B1B"/>
</linearGradient>
<linearGradient id="paint19_linear_189_1159" x1="1.73915" y1="289.623" x2="171.387" y2="289.623" gradientUnits="userSpaceOnUse">
<stop stop-color="#424242"/>
<stop offset="1" stop-color="#1B1B1B"/>
</linearGradient>
<linearGradient id="paint20_linear_189_1159" x1="9.48726" y1="290.643" x2="174.538" y2="290.643" gradientUnits="userSpaceOnUse">
<stop stop-color="#424242"/>
<stop offset="1" stop-color="#1B1B1B"/>
</linearGradient>
<linearGradient id="paint21_linear_189_1159" x1="17.2093" y1="291.796" x2="177.753" y2="291.796" gradientUnits="userSpaceOnUse">
<stop stop-color="#424242"/>
<stop offset="1" stop-color="#1B1B1B"/>
</linearGradient>
<linearGradient id="paint22_linear_189_1159" x1="24.9317" y1="292.839" x2="181.045" y2="292.839" gradientUnits="userSpaceOnUse">
<stop stop-color="#424242"/>
<stop offset="1" stop-color="#1B1B1B"/>
</linearGradient>
<clipPath id="clip0_189_1159">
<rect width="550" height="550" fill="white" transform="translate(390.001 550) rotate(180)"/>
</clipPath>
</defs>
</svg>
