<svg width="17" height="20" viewBox="0 0 17 20" fill="none" xmlns="http://www.w3.org/2000/svg">
<g clip-path="url(#clip0_184_411)">
<path d="M10.0406 2.75895L16.7192 9.32146C16.8995 9.49845 17.0015 9.74373 17.0015 10.0004C17.0015 10.257 16.8995 10.5019 16.7192 10.6793L10.0406 17.2418C9.67658 17.5982 9.10033 17.5848 8.75274 17.21C8.4053 16.839 8.41835 16.2432 8.78357 15.8843L13.8191 10.9389H0.911095C0.408304 10.9389 0 10.5186 0 10.0011C0 9.48347 0.408304 9.06394 0.911095 9.06394H13.8167L8.7812 4.11862C8.41653 3.75896 8.40515 3.16325 8.75046 2.79099C9.09957 2.41599 9.6422 2.4027 10.0406 2.75895Z" fill="#969696"/>
</g>
<defs>
<clipPath id="clip0_184_411">
<rect width="17" height="20" fill="white"/>
</clipPath>
</defs>
</svg>
