<svg width="77" height="10" viewBox="0 0 77 10" fill="none" xmlns="http://www.w3.org/2000/svg">
<g clip-path="url(#clip0_659_4991)">
<path d="M33.1967 6.50668H38.2767L35.5934 2.17335L30.6601 10H28.4167L34.4167 0.610016C34.5475 0.422642 34.7213 0.269341 34.9236 0.162957C35.1258 0.0565731 35.3506 0.000203819 35.5791 -0.00142836C35.8076 -0.00306054 36.0332 0.0500919 36.2369 0.153576C36.4406 0.25706 36.6166 0.407863 36.7501 0.59335L42.7667 10H40.5234L39.4667 8.25002H34.3267L33.2067 6.50668M56.5167 8.25002V0.0933496H54.6101V9.05335C54.6097 9.17786 54.6347 9.30115 54.6834 9.41574C54.7321 9.53034 54.8035 9.63385 54.8934 9.72002C54.9836 9.81235 55.0915 9.8856 55.2106 9.93542C55.3297 9.98524 55.4576 10.0106 55.5867 10.01H64.2534L65.3834 8.26002H56.5067M24.9934 6.79335C25.8819 6.79335 26.734 6.4404 27.3622 5.81216C27.9905 5.18391 28.3434 4.33183 28.3434 3.44335C28.3434 2.55487 27.9905 1.70279 27.3622 1.07454C26.734 0.446295 25.8819 0.0933496 24.9934 0.0933496H16.6601V10H18.5634V1.84668H24.8767C25.302 1.84668 25.7098 2.01561 26.0105 2.31629C26.3111 2.61697 26.4801 3.02479 26.4801 3.45002C26.4801 3.87525 26.3111 4.28306 26.0105 4.58374C25.7098 4.88443 25.302 5.05335 24.8767 5.05335H19.5067L25.1934 10H27.9567L24.1367 6.79335H24.9934ZM4.9534 10H10.7101C12.0011 9.96652 13.228 9.43013 14.1293 8.50516C15.0305 7.5802 15.5349 6.33981 15.5349 5.04835C15.5349 3.75689 15.0305 2.5165 14.1293 1.59154C13.228 0.666574 12.0011 0.130182 10.7101 0.096683H4.9534C4.29233 0.0795296 3.63451 0.194922 3.01875 0.436054C2.40298 0.677186 1.84174 1.03918 1.3681 1.50068C0.894472 1.96218 0.518045 2.51385 0.261022 3.12315C0.00399825 3.73245 -0.128418 4.38705 -0.128418 5.04835C-0.128418 5.70964 0.00399825 6.36425 0.261022 6.97355C0.518045 7.58285 0.894472 8.13452 1.3681 8.59602C1.84174 9.05752 2.40298 9.41951 3.01875 9.66065C3.63451 9.90178 4.29233 10.0172 4.9534 10ZM10.5801 8.25668H5.08007C4.24794 8.22984 3.45887 7.88042 2.87973 7.28229C2.30058 6.68417 1.97677 5.88424 1.97677 5.05168C1.97677 4.21912 2.30058 3.4192 2.87973 2.82107C3.45887 2.22295 4.24794 1.87352 5.08007 1.84668H10.5801C11.0096 1.83283 11.4376 1.90547 11.8386 2.0603C12.2395 2.21513 12.6053 2.44899 12.914 2.74797C13.2228 3.04695 13.4684 3.40495 13.636 3.8007C13.8037 4.19646 13.8901 4.62188 13.8901 5.05168C13.8901 5.48149 13.8037 5.90691 13.636 6.30266C13.4684 6.69841 13.2228 7.05642 12.914 7.3554C12.6053 7.65438 12.2395 7.88823 11.8386 8.04306C11.4376 8.19789 11.0096 8.27054 10.5801 8.25668ZM46.7434 10H52.6201L53.7334 8.25668H46.8734C46.4438 8.27054 46.0158 8.19789 45.6149 8.04306C45.2139 7.88823 44.8482 7.65438 44.5394 7.3554C44.2306 7.05642 43.9851 6.69841 43.8174 6.30266C43.6498 5.90691 43.5634 5.48149 43.5634 5.05168C43.5634 4.62188 43.6498 4.19646 43.8174 3.8007C43.9851 3.40495 44.2306 3.04695 44.5394 2.74797C44.8482 2.44899 45.2139 2.21513 45.6149 2.0603C46.0158 1.90547 46.4438 1.83283 46.8734 1.84668H52.4567L53.5834 0.096683H46.7434C46.0823 0.0795296 45.4245 0.194922 44.8087 0.436054C44.193 0.677186 43.6317 1.03918 43.1581 1.50068C42.6845 1.96218 42.308 2.51385 42.051 3.12315C41.794 3.73245 41.6616 4.38705 41.6616 5.04835C41.6616 5.70964 41.794 6.36425 42.051 6.97355C42.308 7.58285 42.6845 8.13452 43.1581 8.59602C43.6317 9.05752 44.193 9.41951 44.8087 9.66065C45.4245 9.90178 46.0823 10.0172 46.7434 10ZM70.0334 8.25668C69.335 8.25695 68.6556 8.0292 68.0985 7.60804C67.5413 7.18688 67.1369 6.59535 66.9467 5.92335H75.0867L76.2067 4.17668H66.9467C67.1365 3.5044 67.5407 2.91256 68.098 2.49132C68.6552 2.07008 69.3349 1.84253 70.0334 1.84335H75.6201L76.7367 0.0933496H69.9034C68.6124 0.126849 67.3855 0.66324 66.4842 1.58821C65.5829 2.51317 65.0785 3.75356 65.0785 5.04502C65.0785 6.33647 65.5829 7.57686 66.4842 8.50183C67.3855 9.42679 68.6124 9.96319 69.9034 9.99668H75.7801L76.8967 8.25335H70.0301" fill="white"/>
</g>
<defs>
<clipPath id="clip0_659_4991">
<rect width="77" height="10" fill="white"/>
</clipPath>
</defs>
</svg>
