<svg width="18" height="18" viewBox="0 0 18 18" fill="none" xmlns="http://www.w3.org/2000/svg">
<g clip-path="url(#clip0_339_2107)">
<path d="M15.2378 3.27746C14.0906 2.75106 12.8603 2.36322 11.574 2.14107C11.5505 2.13678 11.5271 2.1475 11.5151 2.16891C11.3568 2.45034 11.1816 2.81744 11.0589 3.106C9.67535 2.89886 8.29891 2.89886 6.94378 3.106C6.82101 2.81104 6.63939 2.45034 6.48045 2.16891C6.46839 2.14821 6.44498 2.13748 6.42156 2.14107C5.13597 2.36248 3.90571 2.75033 2.75772 3.27746C2.74777 3.28175 2.73926 3.28888 2.7336 3.29817C0.40007 6.78443 -0.239212 10.185 0.074382 13.5434C0.0757882 13.5598 0.0850343 13.5756 0.0977961 13.5855C1.63739 14.7162 3.12879 15.4026 4.59245 15.8576C4.61587 15.8647 4.64069 15.8562 4.65559 15.8369C5.00181 15.3641 5.31045 14.8655 5.57507 14.3412C5.59068 14.3105 5.57577 14.2741 5.54385 14.262C5.0543 14.0763 4.58817 13.8498 4.13975 13.5927C4.10427 13.572 4.10143 13.5213 4.13409 13.497C4.22845 13.4263 4.32284 13.3527 4.41295 13.2784C4.42926 13.2649 4.45197 13.262 4.47113 13.2705C7.41694 14.6155 10.6061 14.6155 13.5172 13.2705C13.5363 13.2613 13.5591 13.2642 13.5761 13.2777C13.6662 13.352 13.7606 13.4263 13.8556 13.497C13.8883 13.5212 13.8861 13.572 13.8507 13.5927C13.4023 13.8548 12.9361 14.0762 12.4459 14.2612C12.414 14.2733 12.3997 14.3105 12.4154 14.3412C12.6857 14.8647 12.9943 15.3633 13.3342 15.8361C13.3484 15.8561 13.3739 15.8647 13.3973 15.8576C14.8681 15.4026 16.3595 14.7162 17.8991 13.5855C17.9126 13.5755 17.9211 13.5605 17.9225 13.5441C18.2978 9.66141 17.2938 6.2887 15.2612 3.29883C15.2562 3.28888 15.2477 3.28175 15.2378 3.27746ZM6.01505 11.4985C5.12816 11.4985 4.39737 10.6843 4.39737 9.6843C4.39737 8.68431 5.11396 7.87009 6.01505 7.87009C6.92317 7.87009 7.6469 8.69148 7.6327 9.6843C7.6327 10.6843 6.91607 11.4985 6.01505 11.4985ZM11.9961 11.4985C11.1092 11.4985 10.3784 10.6843 10.3784 9.6843C10.3784 8.68431 11.095 7.87009 11.9961 7.87009C12.9042 7.87009 13.6279 8.69148 13.6138 9.6843C13.6138 10.6843 12.9043 11.4985 11.9961 11.4985Z" fill="white"/>
</g>
<defs>
<clipPath id="clip0_339_2107">
<rect width="18" height="18" fill="white"/>
</clipPath>
</defs>
</svg>
