<svg width="18" height="18" viewBox="0 0 18 18" fill="none" xmlns="http://www.w3.org/2000/svg">
<path d="M18.0003 18V11.4074C18.0003 8.1674 17.3027 5.69238 13.5227 5.69238C11.7002 5.69238 10.4852 6.68239 9.9902 7.6274H9.9452V5.98488H6.36768V18H10.1027V12.0374C10.1027 10.4624 10.3952 8.9549 12.3302 8.9549C14.2427 8.9549 14.2652 10.7324 14.2652 12.1274V17.9775H18.0003V18Z" fill="white"/>
<path d="M0.29248 5.98486H4.02751V17.9999H0.29248V5.98486Z" fill="white"/>
<path d="M2.16002 0C0.967508 0 0 0.967508 0 2.16002C0 3.35253 0.967508 4.34254 2.16002 4.34254C3.35253 4.34254 4.32004 3.35253 4.32004 2.16002C4.32004 0.967508 3.35253 0 2.16002 0Z" fill="white"/>
</svg>
