<svg width="139" height="18" viewBox="0 0 139 18" fill="none" xmlns="http://www.w3.org/2000/svg">
<g clip-path="url(#clip0_455_5318)">
<path d="M59.7538 11.7122H68.8978L64.0678 3.91223L55.1878 18.0002H51.1498L61.9498 1.09822C62.1853 0.760951 62.4981 0.485009 62.8621 0.293518C63.2262 0.102027 63.6308 0.000562187 64.0421 -0.00237573C64.4534 -0.00531365 64.8594 0.0903608 65.2261 0.276632C65.5929 0.462904 65.9096 0.734348 66.1498 1.06822L76.9798 18.0002H72.9418L71.0398 14.8502H61.7878L59.7718 11.7122M101.73 14.8502V0.168225H98.2978V16.2962C98.2972 16.5203 98.3421 16.7423 98.4297 16.9485C98.5174 17.1548 98.646 17.3411 98.8078 17.4962C98.9703 17.6624 99.1644 17.7943 99.3788 17.8839C99.5932 17.9736 99.8234 18.0193 100.056 18.0182H115.656L117.69 14.8682H101.712M44.9878 12.2282C46.5871 12.2282 48.1208 11.5929 49.2517 10.4621C50.3825 9.33123 51.0178 7.79748 51.0178 6.19822C51.0178 4.59897 50.3825 3.06522 49.2517 1.93437C48.1208 0.803526 46.5871 0.168225 44.9878 0.168225H29.9878V18.0002H33.4138V3.32422H44.7778C45.5432 3.32422 46.2773 3.62828 46.8185 4.16951C47.3598 4.71074 47.6638 5.44481 47.6638 6.21023C47.6638 6.97564 47.3598 7.7097 46.8185 8.25093C46.2773 8.79216 45.5432 9.09622 44.7778 9.09622H35.1118L45.3478 18.0002H50.3218L43.4458 12.2282H44.9878ZM8.91583 18.0002H19.2778C21.6017 17.9399 23.8101 16.9744 25.4324 15.3095C27.0547 13.6445 27.9626 11.4118 27.9626 9.08722C27.9626 6.7626 27.0547 4.5299 25.4324 2.86497C23.8101 1.20003 21.6017 0.234523 19.2778 0.174225H8.91583C7.7259 0.143349 6.54183 0.351054 5.43345 0.785092C4.32508 1.21913 3.31483 1.87071 2.4623 2.70142C1.60976 3.53212 0.932189 4.52512 0.469546 5.62187C0.00690389 6.71861 -0.231445 7.89689 -0.231445 9.08722C-0.231445 10.2776 0.00690389 11.4558 0.469546 12.5526C0.932189 13.6493 1.60976 14.6423 2.4623 15.473C3.31483 16.3037 4.32508 16.9553 5.43345 17.3894C6.54183 17.8234 7.7259 18.0311 8.91583 18.0002ZM19.0438 14.8622H9.14383C7.646 14.8139 6.22567 14.1849 5.18322 13.1083C4.14076 12.0317 3.5579 10.5918 3.5579 9.09322C3.5579 7.59461 4.14076 6.15475 5.18322 5.07813C6.22567 4.00151 7.646 3.37254 9.14383 3.32422H19.0438C19.8171 3.29928 20.5875 3.43005 21.3092 3.70874C22.0309 3.98744 22.6892 4.40838 23.245 4.94654C23.8008 5.4847 24.2427 6.12911 24.5446 6.84146C24.8464 7.55382 25.0019 8.31957 25.0019 9.09322C25.0019 9.86688 24.8464 10.6326 24.5446 11.345C24.2427 12.0573 23.8008 12.7017 23.245 13.2399C22.6892 13.7781 22.0309 14.199 21.3092 14.4777C20.5875 14.7564 19.8171 14.8872 19.0438 14.8622ZM84.1378 18.0002H94.7158L96.7198 14.8622H84.3718C83.5986 14.8872 82.8282 14.7564 82.1065 14.4777C81.3848 14.199 80.7265 13.7781 80.1707 13.2399C79.6149 12.7017 79.1729 12.0573 78.8711 11.345C78.5693 10.6326 78.4138 9.86688 78.4138 9.09322C78.4138 8.31957 78.5693 7.55382 78.8711 6.84146C79.1729 6.12911 79.6149 5.4847 80.1707 4.94654C80.7265 4.40838 81.3848 3.98744 82.1065 3.70874C82.8282 3.43005 83.5986 3.29928 84.3718 3.32422H94.4218L96.4498 0.174225H84.1378C82.9479 0.143349 81.7638 0.351054 80.6555 0.785092C79.5471 1.21913 78.5368 1.87071 77.6843 2.70142C76.8318 3.53212 76.1542 4.52512 75.6916 5.62187C75.2289 6.71861 74.9906 7.89689 74.9906 9.08722C74.9906 10.2776 75.2289 11.4558 75.6916 12.5526C76.1542 13.6493 76.8318 14.6423 77.6843 15.473C78.5368 16.3037 79.5471 16.9553 80.6555 17.3894C81.7638 17.8234 82.9479 18.0311 84.1378 18.0002ZM126.06 14.8622C124.803 14.8627 123.58 14.4527 122.577 13.6947C121.574 12.9366 120.846 11.8718 120.504 10.6622H135.156L137.172 7.51822H120.504C120.845 6.30811 121.573 5.2428 122.576 4.48457C123.579 3.72634 124.802 3.31676 126.06 3.31823H136.116L138.126 0.168225H125.826C123.502 0.228523 121.294 1.19403 119.671 2.85897C118.049 4.5239 117.141 6.7566 117.141 9.08123C117.141 11.4058 118.049 13.6385 119.671 15.3035C121.294 16.9684 123.502 17.9339 125.826 17.9942H136.404L138.414 14.8562H126.054" fill="white"/>
</g>
<defs>
<clipPath id="clip0_455_5318">
<rect width="138.6" height="18" fill="white"/>
</clipPath>
</defs>
</svg>
