<svg width="50" height="50" viewBox="0 0 50 50" fill="none" xmlns="http://www.w3.org/2000/svg">
<circle cx="25" cy="25" r="24.5" stroke="#424242"/>
<g clip-path="url(#clip0_306_958)">
<path d="M26.7143 26.6875H23.2857C19.8143 26.6875 17 29.4578 17 32.875C17 33.4962 17.5118 34 18.1429 34H31.8571C32.4882 34 33 33.4962 33 32.875C33 29.4578 30.1857 26.6875 26.7143 26.6875ZM18.7496 32.3125C19.0318 30.0941 20.9571 28.375 23.2857 28.375H26.7143C29.0414 28.375 30.9679 30.0959 31.25 32.3125H18.7496ZM25 25C27.5246 25 29.5714 22.9852 29.5714 20.5C29.5714 18.0148 27.5246 16 25 16C22.4754 16 20.4286 18.0148 20.4286 20.5C20.4286 22.9855 22.475 25 25 25ZM25 17.6875C26.5754 17.6875 27.8571 18.9493 27.8571 20.5C27.8571 22.0507 26.5754 23.3125 25 23.3125C23.4246 23.3125 22.1429 22.0504 22.1429 20.5C22.1429 18.9493 23.425 17.6875 25 17.6875Z" fill="#969696"/>
</g>
<defs>
<clipPath id="clip0_306_958">
<rect width="16" height="18" fill="white" transform="translate(17 16)"/>
</clipPath>
</defs>
</svg>
