<svg width="21" height="18" viewBox="0 0 21 18" fill="none" xmlns="http://www.w3.org/2000/svg">
<path fill-rule="evenodd" clip-rule="evenodd" d="M1.44318 7.74889C7.07843 5.20866 10.8362 3.53397 12.7163 2.72491C18.0846 0.414749 19.2002 0.0134203 19.9272 0.000139046C20.0871 -0.00275158 20.4446 0.0382644 20.6762 0.232718C21.0198 0.521155 21.0218 1.14725 20.9836 1.56162C20.6927 4.72412 19.4339 12.3986 18.7935 15.9406C18.5225 17.4394 17.989 17.9419 17.4725 17.9911C16.3499 18.098 15.4975 17.2235 14.4102 16.4862C12.7089 15.3323 11.7478 14.614 10.0963 13.488C8.18775 12.1868 9.42498 11.4716 10.5126 10.3028C10.7973 9.99694 15.7433 5.34233 15.839 4.92006C15.8511 4.86725 15.8621 4.67037 15.7491 4.56647C15.6361 4.46256 15.4693 4.49803 15.3489 4.52631C15.1783 4.56639 12.4603 6.42506 7.19517 10.1023C6.42368 10.6504 5.72491 10.9174 5.09885 10.9034C4.40862 10.888 3.081 10.4997 2.094 10.1677C0.883424 9.76061 -0.0787264 9.5453 0.00508984 8.85389C0.0487347 8.49366 0.528073 8.12538 1.44318 7.74889V7.74889Z" fill="white"/>
</svg>
