<svg width="13" height="12" viewBox="0 0 13 12" fill="none" xmlns="http://www.w3.org/2000/svg">
<g clip-path="url(#clip0_349_1449)">
<path d="M10.5495 3.43862C10.8008 2.91393 10.7652 2.27829 10.3339 1.84701L10.1544 1.66747C9.72307 1.23619 9.07032 1.16757 8.56275 1.45183C8.20551 1.65189 7.44951 1.2359 7.39354 0.966454C7.27601 0.400582 6.72991 -0.00012207 6.12399 -0.00012207L5.81547 0.0155499C5.10598 0.0515979 4.54923 0.637366 4.54923 1.34777C4.57347 1.65588 4.04546 1.88388 3.73877 1.68343C3.2124 1.15706 2.35898 1.15706 1.83262 1.68343L1.68499 1.83105C1.23363 2.28245 1.18118 2.96719 1.49215 3.49428C1.70546 3.85586 1.49746 4.49587 1.14701 4.58203C0.509329 4.73882 0.00146484 5.20788 0.00146484 5.89903V6.12216C0.00146484 6.73425 0.447337 7.19095 1.00198 7.3877C1.57745 7.59185 1.53207 8.436 1.47307 8.53716C1.17209 9.05321 1.24272 9.72641 1.68502 10.1687L1.83264 10.3163C2.27271 10.7564 2.92994 10.8077 3.45643 10.5328C3.83347 10.3359 4.53749 10.7039 4.59588 11.0047C4.70904 11.5878 5.27477 11.9999 5.89714 11.9999H6.08919C6.69931 11.9999 7.21591 11.5995 7.39051 11.0471C7.50471 10.6858 8.0575 10.3199 8.60739 10.5512C9.13051 10.7713 9.77487 10.7118 10.1837 10.303L10.3179 10.1687C10.8443 9.64233 10.8443 8.78892 10.3179 8.26257C10.0815 8.04789 10.3855 7.45589 10.6536 7.45212C11.398 7.45212 12.0015 6.84864 12.0015 6.10423V5.87347C12.0015 5.25362 11.59 4.70076 11.0109 4.57349C10.6215 4.48788 10.4235 3.70188 10.5495 3.43862Z" fill="#FCB808"/>
<path d="M4.95177 7.83182L3.38767 6.26771C3.2002 6.08025 3.2002 5.77634 3.38767 5.5889C3.57513 5.40143 3.87904 5.40143 4.06648 5.5889L5.29118 6.81359L7.9368 4.16797C8.12426 3.98051 8.42817 3.98051 8.61561 4.16797C8.80305 4.35544 8.80308 4.65935 8.61561 4.84679L5.63061 7.83182C5.43364 7.99989 5.08166 7.97589 4.95177 7.83182Z" fill="#161616"/>
</g>
<defs>
<clipPath id="clip0_349_1449">
<rect width="12" height="12" fill="white" transform="translate(0.00146484 -0.00012207)"/>
</clipPath>
</defs>
</svg>
