<svg width="22" height="18" viewBox="0 0 22 18" fill="none" xmlns="http://www.w3.org/2000/svg">
<path d="M20.0945 4.21083C19.8771 4.38731 19.7513 4.65542 19.7524 4.93545C19.7526 4.98249 19.7526 5.02952 19.7526 5.07656C19.7526 11.0812 15.2158 18 6.92388 18C4.75923 18 2.72489 17.4648 0.939754 16.5143C0.701651 16.3876 0.819082 16.0172 1.08883 16.0172C1.936 16.0172 2.75612 15.9013 3.53469 15.6833C4.68973 15.3599 4.33924 13.547 3.51083 12.6795C3.2353 12.391 2.99759 12.066 2.80552 11.7123C2.61741 11.3659 2.92818 10.9969 3.32236 10.9969C3.6177 10.9969 3.64257 10.5822 3.37908 10.4488C1.90308 9.70136 0.893367 8.16657 0.893367 6.38437C0.893367 6.35921 0.920466 6.34333 0.942544 6.35539C1.12863 6.45698 1.32381 6.54647 1.52645 6.62224C1.91214 6.76644 2.1362 6.25221 1.88299 5.9275C1.27986 5.15408 0.921297 4.17916 0.921297 3.12184C0.921297 1.96508 2.32669 1.79794 3.20738 2.54792C5.03451 4.10386 7.3028 5.15064 9.78888 5.48532C10.3142 5.55604 10.7208 5.07228 10.7208 4.54219C10.7208 2.03904 12.731 0 15.2297 0C16.337 0 17.3529 0.39901 18.1389 1.06613C18.3918 1.28078 18.723 1.39996 19.0442 1.3172C19.4803 1.20484 19.9062 1.05927 20.3162 0.883957C20.7008 0.719476 21.1011 1.07005 20.8734 1.421C20.7773 1.56915 20.6727 1.71133 20.5603 1.84687C20.3295 2.12513 20.567 2.63677 20.9136 2.53391C21.2379 2.43766 21.5083 2.806 21.2858 3.06077C20.9224 3.47687 20.5234 3.86265 20.0945 4.21083Z" fill="white"/>
</svg>
