<svg width="267" height="266" viewBox="0 0 267 266" fill="none" xmlns="http://www.w3.org/2000/svg">
<g clip-path="url(#clip0_189_1184)">
<g opacity="0.9">
<path opacity="0.9" d="M235.904 63.5186C235.904 72.8875 233.512 83.8635 228.709 96.0449C218.7 121.485 199.397 149.3 174.358 174.338C149.319 199.377 121.505 218.681 96.0647 228.689C70.3505 238.806 50.0603 238.222 38.9016 227.082C27.743 215.923 27.1768 195.633 37.2945 169.919C47.3026 144.478 66.6066 116.664 91.6451 91.6252C116.684 66.5867 144.498 47.2828 169.938 37.2747C195.653 27.157 215.943 27.7414 227.101 38.8818C232.964 44.7442 235.904 53.1269 235.904 63.5003V63.5186ZM32.0348 202.481C32.0348 212.325 34.7925 220.233 40.2714 225.73C62.3148 247.774 121.834 224.105 172.97 172.987C224.106 121.85 247.757 62.3315 225.713 40.2881C203.67 18.2447 144.151 41.9135 93.0148 93.0315C68.1589 117.887 49.0011 145.464 39.0843 170.667C34.3724 182.648 32.0165 193.386 32.0165 202.481H32.0348Z" fill="url(#paint0_linear_189_1184)"/>
<path opacity="0.9" d="M247.939 75.5539C247.939 84.9228 245.547 95.8988 240.744 108.08C230.736 133.521 211.432 161.335 186.393 186.374C161.355 211.412 133.54 230.716 108.1 240.724C82.3856 250.842 62.0955 250.257 50.9368 239.117C39.7781 227.958 39.212 207.668 49.3297 181.954C59.3378 156.514 78.6417 128.699 103.68 103.661C128.719 78.622 156.533 59.3181 181.974 49.31C207.688 39.1923 227.978 39.7767 239.137 50.9171C244.999 56.7795 247.939 65.1622 247.939 75.5356V75.5539ZM44.0699 214.462C44.0699 224.141 46.7181 232.159 52.3248 237.765C74.3682 259.809 133.887 236.14 185.023 185.022C236.141 133.904 259.81 74.3668 237.767 52.3234C215.723 30.28 156.204 53.9488 105.068 105.067C66.9352 143.2 44.0699 186.027 44.0699 214.462Z" fill="url(#paint1_linear_189_1184)"/>
<path opacity="0.9" d="M229.877 57.5101C229.877 66.879 227.485 77.855 222.682 90.0364C212.674 115.477 193.37 143.291 168.331 168.33C143.293 193.368 115.478 212.672 90.0379 222.68C64.3236 232.798 44.0335 232.214 32.8748 221.073C21.7161 209.914 21.15 189.624 31.2676 163.91C41.2758 138.47 60.5797 110.655 85.6182 85.6168C110.657 60.5782 138.471 41.2743 163.912 31.2479C189.626 21.1302 209.916 21.7147 221.075 32.8551C226.937 38.7175 229.877 47.1002 229.877 57.4735V57.5101ZM26.0079 196.455C26.0079 206.298 28.7656 214.206 34.2445 219.703C44.8188 230.278 64.3784 230.698 89.3073 220.872C114.51 210.955 142.087 191.798 166.943 166.942C218.079 115.805 241.73 56.2864 219.687 34.243C197.643 12.1997 138.124 35.8685 86.9879 86.9865C62.1321 111.842 42.9742 139.419 33.0574 164.622C28.3456 176.603 25.9897 187.341 25.9897 196.436L26.0079 196.455Z" fill="url(#paint2_linear_189_1184)"/>
<path opacity="0.9" d="M217.842 45.4748C217.842 54.8437 215.45 65.8197 210.647 78.0011C200.638 103.441 181.335 131.256 156.296 156.294C131.258 181.333 103.443 200.637 78.0027 210.645C52.2884 220.763 31.9983 220.178 20.8396 209.038C9.68096 197.879 9.11481 177.589 19.2325 151.875C29.2406 126.434 48.5445 98.62 73.5831 73.5815C98.6216 48.5429 126.436 29.239 151.876 19.2309C177.591 9.11321 197.881 9.69763 209.039 20.838C214.902 26.7004 217.842 35.0831 217.842 45.4565V45.4748ZM13.9728 184.365C13.9728 194.044 16.6209 202.061 22.2276 207.668C32.8019 218.242 52.3615 218.662 77.2904 208.837C102.493 198.92 130.07 179.762 154.926 154.906C206.044 103.788 229.713 44.2511 207.67 22.2078C185.626 0.164366 126.107 23.8332 74.971 74.9512C36.8197 113.103 13.9728 155.929 13.9728 184.365Z" fill="url(#paint3_linear_189_1184)"/>
<path opacity="0.9" d="M211.815 39.448C211.815 48.8169 209.423 59.7929 204.62 71.9743C194.612 97.4146 175.308 125.229 150.269 150.268C125.231 175.306 97.4161 194.61 71.9758 204.618C46.2616 214.736 25.9714 214.151 14.8128 203.011C3.65411 191.852 3.08796 171.562 13.2056 145.848C23.2137 120.408 42.5177 92.5932 67.5562 67.5547C92.5947 42.5162 120.409 23.2122 145.85 13.2041C171.564 3.08642 191.854 3.67083 203.013 14.8112C208.875 20.6737 211.815 29.0564 211.815 39.4297V39.448ZM7.9459 178.338C7.9459 188.017 10.594 196.035 16.2008 201.641C38.2442 223.685 97.7631 200.016 148.899 148.898C200.017 97.7616 223.686 38.2426 201.643 16.1992C179.599 -5.84417 120.08 17.8246 68.9442 68.9427C30.8111 107.094 7.9459 149.902 7.9459 178.338Z" fill="url(#paint4_linear_189_1184)"/>
<path opacity="0.9" d="M223.869 51.4833C223.869 60.8522 221.477 71.8282 216.673 84.0096C206.665 109.45 187.361 137.264 162.323 162.303C137.284 187.341 109.47 206.645 84.0296 216.654C58.3153 226.771 38.0252 226.187 26.8665 215.046C15.7078 203.888 15.1417 183.598 25.2593 157.883C35.2675 132.443 54.5714 104.629 79.6099 79.59C104.648 54.5515 132.463 35.2475 157.903 25.2394C183.617 15.1217 203.908 15.7061 215.066 26.8465C220.929 32.709 223.869 41.0917 223.869 51.465V51.4833ZM19.9814 190.373C19.9814 200.052 22.6295 208.07 28.2362 213.677C38.8105 224.251 58.3701 224.671 83.299 214.845C108.502 204.929 136.079 185.771 160.935 160.915C212.053 109.797 235.722 50.2597 213.678 28.2163C191.635 6.17288 132.116 29.8417 80.9796 80.9597C42.8466 119.129 19.9814 161.938 19.9814 190.373Z" fill="url(#paint5_linear_189_1184)"/>
<path opacity="0.9" d="M241.913 69.5454C241.913 78.9143 239.52 89.8903 234.717 102.072C224.709 127.512 205.405 155.326 180.348 180.365C155.31 205.404 127.495 224.707 102.055 234.716C76.3407 244.833 56.0505 244.249 44.8919 233.108C33.7332 221.95 33.1671 201.66 43.2847 175.945C53.2928 150.505 72.5968 122.691 97.6536 97.6521C122.692 72.6135 150.507 53.3096 175.947 43.3015C201.661 33.1838 221.951 33.7682 233.11 44.9086C238.972 50.771 241.913 59.1537 241.913 69.5271V69.5454ZM38.0433 208.435C38.0433 218.115 40.6914 226.132 46.2981 231.739C68.3415 253.782 127.861 230.113 178.997 178.995C230.133 127.859 253.784 68.34 231.74 46.2966C209.697 24.2532 150.178 47.922 99.0416 99.04C60.9085 137.173 38.0433 180 38.0433 208.435Z" fill="url(#paint6_linear_189_1184)"/>
<path opacity="0.9" d="M266.001 93.6159C266.001 102.985 263.609 113.961 258.806 126.142C248.798 151.583 229.494 179.397 204.455 204.436C179.417 229.474 151.602 248.778 126.162 258.786C100.448 268.904 80.1575 268.319 68.9988 257.179C57.8401 246.02 57.274 225.73 67.3917 200.016C77.3998 174.576 96.7037 146.761 121.742 121.723C146.781 96.6841 174.595 77.3802 200.036 67.3538C225.75 57.2361 246.04 57.8205 257.199 68.9609C263.061 74.8233 266.001 83.206 266.001 93.5794V93.6159ZM62.1137 232.524C62.1137 242.203 64.7618 250.221 70.3685 255.828C92.4119 277.871 151.931 254.202 203.067 203.084C254.185 151.948 277.854 92.4288 255.811 70.3854C233.767 48.3421 174.248 72.0108 123.112 123.129C84.9789 161.262 62.1137 204.089 62.1137 232.524Z" fill="url(#paint7_linear_189_1184)"/>
<path opacity="0.9" d="M253.966 81.5806C253.966 90.9495 251.574 101.926 246.771 114.107C236.762 139.547 217.459 167.362 192.42 192.4C167.382 217.439 139.567 236.743 114.127 246.751C88.4125 256.869 68.1223 256.284 56.9637 245.144C45.805 233.985 45.2388 213.695 55.3565 187.981C65.3646 162.54 84.6686 134.726 109.707 109.687C134.746 84.6488 162.56 65.3449 188 55.3368C213.715 45.2191 234.005 45.8035 245.163 56.9439C251.026 62.8063 253.966 71.189 253.966 81.5624V81.5806ZM50.0785 220.47C50.0785 230.15 52.7267 238.167 58.3334 243.774C80.3768 265.817 139.896 242.149 191.032 191.031C242.168 139.894 265.819 80.3753 243.775 58.3319C221.732 36.2885 162.213 59.9573 111.077 111.075C72.9437 149.208 50.0785 192.035 50.0785 220.47Z" fill="url(#paint8_linear_189_1184)"/>
<path opacity="0.9" d="M259.975 87.6074C259.975 96.9763 257.582 107.952 252.779 120.134C242.771 145.574 223.467 173.389 198.428 198.427C173.39 223.466 145.575 242.77 120.135 252.778C94.4208 262.895 74.1306 262.311 62.972 251.171C51.8133 240.012 51.2471 219.722 61.3648 194.007C71.3729 168.567 90.6769 140.753 115.715 115.714C140.754 90.6756 168.568 71.3716 194.009 61.3635C219.723 51.2458 240.013 51.8303 251.172 62.9707C257.034 68.8331 259.975 77.2158 259.975 87.5891V87.6074ZM56.1051 226.497C56.1051 236.177 58.7532 244.194 64.3599 249.801C86.4033 271.844 145.922 248.175 197.059 197.057C248.195 145.939 271.845 86.4021 249.802 64.3587C227.759 42.3153 168.24 65.9841 117.103 117.102C78.9703 155.235 56.1051 198.062 56.1051 226.497Z" fill="url(#paint9_linear_189_1184)"/>
<path opacity="0.9" d="M205.807 33.4212C205.807 42.7901 203.414 53.7661 198.611 65.9475C188.603 91.3878 169.299 119.202 144.242 144.241C119.204 169.279 91.3893 188.583 65.949 198.591C40.2347 208.709 19.9446 208.125 8.78592 196.984C-2.37275 185.826 -2.9389 165.535 7.17878 139.821C17.1869 114.381 36.4908 86.5664 61.5293 61.5279C86.5679 36.4894 114.382 17.1854 139.823 7.17734C165.537 -2.94034 185.827 -2.35593 196.986 8.78448C202.848 14.6469 205.788 23.0296 205.788 33.4029L205.807 33.4212ZM1.93731 172.329C1.93731 182.009 4.58544 190.026 10.1922 195.633C20.7664 206.207 40.3261 206.627 65.255 196.802C90.4579 186.885 118.035 167.745 142.891 142.871C167.747 117.997 186.905 90.4382 196.821 65.2353C206.629 40.2881 206.209 20.7467 195.653 10.1725C173.609 -11.8709 114.09 11.7979 62.9539 62.9159C24.7843 101.067 1.93731 143.876 1.93731 172.329Z" fill="url(#paint10_linear_189_1184)"/>
</g>
</g>
<defs>
<linearGradient id="paint0_linear_189_1184" x1="30.0986" y1="132.982" x2="235.904" y2="132.982" gradientUnits="userSpaceOnUse">
<stop stop-color="#424242"/>
<stop offset="1" stop-color="#424242" stop-opacity="0"/>
</linearGradient>
<linearGradient id="paint1_linear_189_1184" x1="42.1338" y1="145.017" x2="247.939" y2="145.017" gradientUnits="userSpaceOnUse">
<stop stop-color="#424242"/>
<stop offset="1" stop-color="#424242" stop-opacity="0"/>
</linearGradient>
<linearGradient id="paint2_linear_189_1184" x1="24.0718" y1="126.964" x2="229.877" y2="126.964" gradientUnits="userSpaceOnUse">
<stop stop-color="#424242"/>
<stop offset="1" stop-color="#424242" stop-opacity="0"/>
</linearGradient>
<linearGradient id="paint3_linear_189_1184" x1="12.0366" y1="114.938" x2="217.842" y2="114.938" gradientUnits="userSpaceOnUse">
<stop stop-color="#424242"/>
<stop offset="1" stop-color="#424242" stop-opacity="0"/>
</linearGradient>
<linearGradient id="paint4_linear_189_1184" x1="6.00977" y1="108.911" x2="211.815" y2="108.911" gradientUnits="userSpaceOnUse">
<stop stop-color="#424242"/>
<stop offset="1" stop-color="#424242" stop-opacity="0"/>
</linearGradient>
<linearGradient id="paint5_linear_189_1184" x1="18.0635" y1="120.946" x2="223.869" y2="120.946" gradientUnits="userSpaceOnUse">
<stop stop-color="#424242"/>
<stop offset="1" stop-color="#424242" stop-opacity="0"/>
</linearGradient>
<linearGradient id="paint6_linear_189_1184" x1="36.0889" y1="139.009" x2="241.913" y2="139.009" gradientUnits="userSpaceOnUse">
<stop stop-color="#424242"/>
<stop offset="1" stop-color="#424242" stop-opacity="0"/>
</linearGradient>
<linearGradient id="paint7_linear_189_1184" x1="60.1958" y1="163.07" x2="266.001" y2="163.07" gradientUnits="userSpaceOnUse">
<stop stop-color="#424242"/>
<stop offset="1" stop-color="#424242" stop-opacity="0"/>
</linearGradient>
<linearGradient id="paint8_linear_189_1184" x1="48.1606" y1="151.044" x2="253.966" y2="151.044" gradientUnits="userSpaceOnUse">
<stop stop-color="#424242"/>
<stop offset="1" stop-color="#424242" stop-opacity="0"/>
</linearGradient>
<linearGradient id="paint9_linear_189_1184" x1="54.1689" y1="157.071" x2="259.975" y2="157.071" gradientUnits="userSpaceOnUse">
<stop stop-color="#424242"/>
<stop offset="1" stop-color="#424242" stop-opacity="0"/>
</linearGradient>
<linearGradient id="paint10_linear_189_1184" x1="-0.0170898" y1="102.884" x2="205.807" y2="102.884" gradientUnits="userSpaceOnUse">
<stop stop-color="#424242"/>
<stop offset="1" stop-color="#424242" stop-opacity="0"/>
</linearGradient>
<clipPath id="clip0_189_1184">
<rect width="266" height="266" fill="white" transform="translate(0.00146484)"/>
</clipPath>
</defs>
</svg>
